<?xml version="1.0" standalone="no"?>
<!DOCTYPE svg PUBLIC "-//W3C//DTD SVG 1.1//EN" "http://www.w3.org/Graphics/SVG/1.1/DTD/svg11.dtd" >
<svg xmlns="http://www.w3.org/2000/svg">
<metadata></metadata>
<defs>
<font id="globerthin_free" horiz-adv-x="556" >
<font-face units-per-em="1000" ascent="750" descent="-250" />
<missing-glyph horiz-adv-x="263" />
<glyph unicode=" "  horiz-adv-x="263" />
<glyph unicode="&#x09;" horiz-adv-x="263" />
<glyph unicode="&#xa0;" horiz-adv-x="263" />
<glyph unicode="!" horiz-adv-x="226" d="M106 142v576q8 3 15 0l-2 -576q-7 -3 -13 0zM127 21v-20q-5 -4 -14 -4l-14 4v20q6 4 14 4z" />
<glyph unicode="&#x26;" horiz-adv-x="630" d="M459 88q79 -52 136 -74q1 -9 -6 -15q-69 27 -141 77q-88 -86 -208 -86q-77 0 -129.5 42.5t-52.5 125.5q0 71 39.5 116t110.5 82q-34 82 -34 155q0 85 40 132t112 47q60 0 94 -35.5t34 -82.5q0 -23 -6 -44t-14 -36.5t-24 -31.5t-29 -26.5t-36 -24t-37 -20.5t-40.5 -20 t-39.5 -20q66 -144 218 -252q71 75 88 175q9 -1 15 -10q-22 -99 -90 -174zM322 674q-62 0 -97 -42.5t-35 -118.5q0 -74 31 -150q11 6 43.5 22t45.5 23t38.5 22.5t37.5 28t26.5 30t20 37.5t5.5 44q0 48 -31 76t-85 28zM215 342q-67 -35 -104 -77t-37 -108q0 -71 46.5 -111.5 t120.5 -40.5q111 0 194 80q-152 112 -220 257z" />
<glyph unicode="(" horiz-adv-x="278" d="M228 811q8 -2 12 -8q-6 -7 -16.5 -20.5t-37 -59.5t-46.5 -98t-36.5 -134.5t-16.5 -170.5t16 -170t38.5 -136t44.5 -96t38 -62l16 -19q-2 -6 -10 -8q-1 -1 -17 19.5t-40 63t-46.5 98.5t-39 139t-16.5 171t16 171t39.5 138.5t46.5 98.5t39 63z" />
<glyph unicode=")" horiz-adv-x="278" d="M191 320q0 88 -16 170t-38.5 136t-44.5 96t-38 62l-16 19q4 6 12 8q6 -7 17 -21t38 -61t47.5 -100t37.5 -137t17 -172t-16.5 -171t-39 -139t-46.5 -98.5t-40 -63t-17 -19.5q-8 2 -10 8q6 7 16.5 20.5t37 59.5t46.5 98t36.5 134.5t16.5 170.5z" />
<glyph unicode="," horiz-adv-x="178" d="M71 -70l-8 6q24 30 24 62l-10 2v20q3 2 12 2l12 -2v-17q0 -20 -7.5 -38t-15.5 -27z" />
<glyph unicode="-" horiz-adv-x="350" d="M261 281h-172q-3 7 0 15h172q3 -8 0 -15z" />
<glyph unicode="." horiz-adv-x="162" d="M95 21v-20q-5 -4 -14 -4l-14 4v20q6 4 14 4z" />
<glyph unicode="/" horiz-adv-x="406" d="M43 -44q-8 -3 -16 0l337 791q8 3 16 0z" />
<glyph unicode="0" horiz-adv-x="622" d="M310 -10q-115 0 -172.5 83.5t-57.5 266.5q0 181 57.5 265.5t172.5 84.5t173.5 -83.5t58.5 -266.5t-58.5 -266.5t-173.5 -83.5zM310 675q-110 0 -162.5 -82.5t-52.5 -252.5t52.5 -252.5t162.5 -82.5q111 0 164 82.5t53 252.5t-53 252.5t-164 82.5z" />
<glyph unicode="1" horiz-adv-x="382" d="M45 512q63 17 118.5 60.5t91.5 105.5q1 2 7 2l6 -2v-676q-8 -4 -15 0v647q-71 -114 -203 -151q-7 5 -5 14z" />
<glyph unicode="2" horiz-adv-x="525" d="M95 641q-5 4 -5 13q67 36 179 36q84 0 136 -39.5t52 -125.5q0 -32 -9.5 -59t-22 -46t-42 -42t-51 -37t-66.5 -41q-13 -8 -39.5 -22t-43 -23t-38 -27.5t-34.5 -38.5t-22 -51.5t-9 -70.5v-12t0.5 -11l1 -10t0.5 -8.5t0.5 -6t0.5 -3.5v-1h362q5 -7 0 -15h-375q-6 32 -6 67 q0 39 9 70.5t19.5 51t34.5 40.5t38 30t46.5 27t45.5 26q8 5 31.5 19t31.5 19t27.5 18t27 20.5t21.5 20.5t20 24t13.5 26t10 31.5t2.5 34.5q0 150 -174 150q-95 0 -173 -34z" />
<glyph unicode="3" horiz-adv-x="509" d="M432 170q0 -88 -55 -134t-161 -46q-42 0 -81.5 8t-58.5 16l-18 7q0 9 6 13q72 -29 151 -29q202 0 202 163q0 55 -19.5 93t-52.5 56t-66 25.5t-70 7.5h-37q-1 7 0 15h37q190 0 190 163q0 68 -43 107.5t-131 39.5q-38 0 -75.5 -6.5t-55.5 -12.5l-19 -7q-6 2 -6 12 q67 29 157 29q93 0 140.5 -45t47.5 -114q0 -148 -140 -174q80 -13 119 -63t39 -124z" />
<glyph unicode="4" horiz-adv-x="570" d="M45 205l348 473q2 2 9 2l6 -2v-473h113q2 -1 2 -8l-2 -7h-113v-188q-2 -2 -8 -2l-7 2v188h-348q-2 1 -2 7zM393 652l-329 -447h329v447z" />
<glyph unicode="5" horiz-adv-x="514" d="M115 364q50 10 104 10q227 0 227 -196q0 -188 -238 -188q-44 0 -80.5 6t-50.5 12l-14 5q-1 7 4 13q62 -22 137 -22q116 0 171.5 42.5t55.5 131.5q0 39 -9 69t-31 56.5t-65.5 41t-106.5 14.5q-73 0 -119 -13v334h317q3 -7 0 -15h-302v-301z" />
<glyph unicode="6" horiz-adv-x="552" d="M419 680q3 -8 0 -14q-280 -27 -322 -321q87 71 194 71q98 0 148 -54t50 -159q0 -100 -57.5 -156.5t-148.5 -56.5q-93 0 -149.5 66.5t-56.5 200.5q0 201 93 306.5t249 116.5zM474 203q0 98 -46 148t-135 50q-109 0 -198 -74q-2 -15 -2 -74q0 -123 52 -185.5t138 -62.5 q85 0 138 51.5t53 146.5z" />
<glyph unicode="7" horiz-adv-x="493" d="M42 680h401q2 -8 2 -10q1 -72 -26 -134t-65.5 -112t-77 -104.5t-65.5 -136t-27 -181.5q-3 -3 -7 -3t-6 1l-2 2q0 100 27 182.5t65.5 138t76.5 105.5t65 110t27 127h-388q-2 2 -2 7z" />
<glyph unicode="8" horiz-adv-x="581" d="M480 535q0 -39 -13.5 -73t-35.5 -57.5t-40 -38t-38 -25.5q73 -30 114 -71.5t41 -112.5q0 -79 -57.5 -123t-159.5 -44t-159.5 43.5t-57.5 120.5q0 44 16.5 83.5t44.5 68t48 44t41 28.5q-60 28 -93.5 65.5t-33.5 94.5q0 72 50.5 112t140.5 40q91 0 141.5 -41t50.5 -114z M288 675q-83 0 -129.5 -36t-46.5 -100q0 -21 6 -40t13.5 -33t24.5 -28t28 -22.5t35.5 -20t36.5 -16.5t41 -16t39 -15q49 24 89 71.5t40 115.5q0 66 -47 103t-130 37zM89 155q0 -71 53.5 -110.5t148.5 -39.5t148.5 40t53.5 112q0 32 -11.5 58.5t-25.5 43.5t-45.5 35.5 t-49.5 26.5t-61.5 25.5t-59.5 24.5q-16 -7 -38 -23.5t-49 -43.5t-45.5 -67t-18.5 -82z" />
<glyph unicode="9" horiz-adv-x="552" d="M123 0q-3 8 0 14q138 13 224.5 92.5t107.5 228.5q-87 -71 -194 -71q-93 0 -145.5 56.5t-52.5 156.5t57.5 156.5t148.5 56.5q93 0 149.5 -66.5t56.5 -200.5q0 -200 -97.5 -306t-254.5 -117zM78 477q0 -93 48 -145.5t133 -52.5q109 0 198 74q2 15 2 74q0 123 -52 185.5 t-138 62.5q-85 0 -138 -51.5t-53 -146.5z" />
<glyph unicode="?" horiz-adv-x="428" d="M368 540q0 -55 -20 -95.5t-49 -67t-57.5 -54.5t-48.5 -73.5t-20 -108.5q-3 -2 -8 -2l-7 2q0 48 11 86.5t28 63t38 46t41.5 41t37.5 40.5t28 51.5t11 69.5q0 58 -37 97t-119 39q-40 0 -76 -6.5t-53 -13.5l-16 -7q-8 4 -5 14q60 28 149 28q90 0 131 -44t41 -106zM180 21 v-20q-5 -4 -14 -4l-14 4v20q6 4 14 4z" />
<glyph unicode="@" horiz-adv-x="917" d="M839 303q0 -218 -153 -218q-35 0 -63.5 24.5t-34.5 75.5q-13 -44 -46.5 -72t-82.5 -28q-161 0 -161 193q0 194 161 194q46 0 78.5 -25t46.5 -61v83q4 2 7.5 2t5.5 -1l2 -1v-249q0 -120 89 -120q136 0 136 203q0 165 -98 263.5t-270 98.5q-159 0 -263 -106t-104 -280 q0 -179 94 -279t262 -100q170 0 287 91q8 -3 9 -11q-124 -95 -296 -95q-175 0 -273 104t-98 290q0 180 107 290.5t275 110.5q182 0 282.5 -104t100.5 -273zM313 278q0 -178 144 -178q57 0 91 39t36 89v96q1 53 -33.5 93t-93.5 40q-144 0 -144 -179z" />
<glyph unicode="A" horiz-adv-x="637" d="M320 723l292 -722q-3 -2 -8 -2l-9 2l-91 227h-371l-91 -227q-3 -2 -9 -2l-8 2l291 722q2 2 4 0zM139 243h359l-180 446z" />
<glyph unicode="B" horiz-adv-x="625" d="M528 537q0 -45 -13 -79.5t-34.5 -53t-41.5 -28t-41 -12.5q23 -1 46 -9.5t49 -27t42 -55.5t16 -87q0 -89 -49.5 -137t-163.5 -48h-226v720h222q194 0 194 -183zM127 370h207q179 0 179 167q0 80 -42 124t-141 44h-203v-335zM127 15h215q105 0 149.5 43.5t44.5 126.5 q0 171 -195 171h-214v-341z" />
<glyph unicode="C" d="M79 359q0 186 62.5 278.5t191.5 92.5q48 0 89.5 -8t58.5 -16l17 -7q0 -9 -6 -13q-59 29 -156 29q-117 0 -179.5 -81t-62.5 -275q0 -100 16.5 -170t49.5 -109.5t75.5 -57t100.5 -17.5q47 0 88.5 7.5t59.5 15.5l18 7q7 -3 7 -12q-58 -33 -176 -33q-129 0 -191.5 90 t-62.5 279z" />
<glyph unicode="D" horiz-adv-x="657" d="M112 720h180q99 0 159 -30.5t93 -110.5t33 -219q0 -104 -18.5 -175t-56 -111.5t-88 -57t-122.5 -16.5h-180v720zM127 15h162q71 0 119.5 16t84.5 54.5t52.5 106t16.5 168.5q0 134 -30.5 210.5t-88 105.5t-154.5 29h-162v-690z" />
<glyph unicode="E" d="M112 720h379q3 -8 0 -15h-364v-332h314q3 -7 0 -15h-314v-343h374q3 -7 0 -15h-389v720z" />
<glyph unicode="F" horiz-adv-x="533" d="M127 350v-348q-1 -2 -7 -2l-8 2v718h381q3 -8 0 -15h-366v-340h316q3 -7 0 -15h-316z" />
<glyph unicode="G" horiz-adv-x="615" d="M78 360q0 183 68 276.5t196 93.5q49 0 94 -8t65 -16l20 -7q0 -9 -6 -13q-76 29 -170 29q-252 0 -252 -355t252 -355q92 0 173 27v320h-209v15h223v-346q-74 -31 -190 -31q-264 0 -264 370z" />
<glyph unicode="H" horiz-adv-x="672" d="M545 377v341q3 2 7 2l8 -2v-716q-2 -2 -8 -2l-7 2v360h-418v-360q-2 -2 -7 -2l-8 2v716q3 2 8 2l7 -2v-341h418z" />
<glyph unicode="I" horiz-adv-x="239" d="M112 2v716q2 2 8 2l7 -2v-716q-2 -2 -8 -2z" />
<glyph unicode="J" horiz-adv-x="413" d="M290 144v574q3 2 7 2l8 -2v-574q0 -82 -31 -118t-108 -36q-32 0 -65 7.5t-51 14.5l-17 8q-2 11 7 14q54 -29 129 -29q64 0 92.5 31t28.5 108z" />
<glyph unicode="K" horiz-adv-x="606" d="M291 381l237 337q4 3 8.5 3t7.5 -1l2 -2l-242 -343l270 -373l-3 -1q-3 -1 -6 -1l-10 2l-263 364h-165v-364q-3 -2 -7 -2l-8 2v716q3 2 7 2l8 -2v-337h164z" />
<glyph unicode="L" horiz-adv-x="498" d="M112 0v718q3 2 8 2l7 -2v-703h340v-15h-355z" />
<glyph unicode="M" horiz-adv-x="860" d="M430 228l296 490q11 5 22 0v-716q-2 -2 -8 -2l-7 2v647l1 56l-293 -488q-11 -5 -22 0l-293 488l1 -56v-647q-1 -2 -7 -2l-8 2v716q11 5 22 0z" />
<glyph unicode="N" horiz-adv-x="688" d="M561 2l-436 693l2 -116v-577q-4 -2 -8 -2l-7 2v716q3 2 8 2l7 -2l389 -616l48 -78q-3 41 -3 107v587q2 2 8 2l7 -2v-716q-3 -2 -7 -2z" />
<glyph unicode="O" horiz-adv-x="678" d="M79 360q0 370 260 370t260 -370t-260 -370t-260 370zM584 360q0 183 -64 269t-181 86q-245 0 -245 -355t245 -355q117 0 181 86t64 269z" />
<glyph unicode="P" horiz-adv-x="596" d="M127 317v-315q-2 -2 -8 -2l-7 2v718h241q87 0 135.5 -53.5t48.5 -148.5t-48.5 -148t-135.5 -53h-226zM127 332h227q79 0 123.5 49t44.5 136q0 89 -44.5 138.5t-123.5 49.5h-227v-373z" />
<glyph unicode="Q" horiz-adv-x="676" d="M598 360q0 -234 -106 -321q49 -56 124 -75q0 -9 -5 -14q-30 5 -67.5 27.5t-61.5 51.5q-60 -39 -144 -39q-128 0 -194 94t-66 276t66 276t194 94t194 -94t66 -276zM338 715q-121 0 -183 -90t-62 -265t62 -265t183 -90q117 0 181 86t64 269q0 175 -62 265t-183 90z" />
<glyph unicode="R" horiz-adv-x="612" d="M112 720h235q87 0 136 -52.5t49 -140.5q0 -78 -40 -128.5t-112 -62.5l172 -334q-5 -2 -9 -2l-8 2l-170 332h-238v-332q-2 -2 -8 -2l-7 2v718zM127 705v-356h222q76 0 122 47.5t46 130.5t-46 130.5t-122 47.5h-222z" />
<glyph unicode="S" d="M72 545q0 86 58 135.5t162 49.5q47 0 91 -6t64 -12l20 -5q0 -9 -5 -14q-79 23 -169 23q-101 0 -153.5 -46.5t-52.5 -124.5q0 -43 13.5 -73t43.5 -49.5t59 -29.5t79 -23q38 -9 61.5 -16.5t55.5 -23t50 -34t31 -49t13 -69.5q0 -88 -61 -138t-167 -50q-52 0 -100 9t-71 18 l-22 9q0 8 6 14q80 -35 182 -35t160 45t58 128q0 36 -11.5 63.5t-27.5 44.5t-45.5 31.5t-51.5 21t-61 16.5q-40 10 -64 17.5t-55 22.5t-48 33.5t-29.5 48t-12.5 68.5z" />
<glyph unicode="T" horiz-adv-x="525" d="M37 720h451q2 0 2 -7l-2 -8h-215v-703q-2 -2 -8 -2l-7 2v703h-221q-2 3 -2 8z" />
<glyph unicode="U" horiz-adv-x="662" d="M556 718v-502q0 -106 -60 -166t-166 -60t-165 59.5t-59 166.5v502q2 2 7 2l8 -2v-503q0 -99 55.5 -154.5t154.5 -55.5t154.5 55.5t55.5 154.5v503q4 2 7 2z" />
<glyph unicode="V" horiz-adv-x="597" d="M46 718l252 -683h1l251 683q2 2 9 2l7 -2l-266 -722q-2 -2 -3 0l-267 723q2 1 8 1z" />
<glyph unicode="W" horiz-adv-x="938" d="M684 -4l-192 618l-18 71h-1q-3 -21 -19 -71l-193 -618q-1 -2 -3 0l-224 722q2 2 8 2l8 -2l188 -609l22 -77h1q5 25 21 77l188 609q1 2 3 2l3 -2l188 -609l21 -79h1q5 29 19 79l176 609q0 2 9 2l7 -2l-210 -722q-1 -2 -3 0z" />
<glyph unicode="X" horiz-adv-x="569" d="M290 366l238 -365q-3 -1 -9 -1l-9 2l-229 350l-219 -350q-3 -2 -11 -2q-3 0 -7 2l229 364l-229 352q2 2 9 2l9 -2l220 -339l222 339q11 5 19 0z" />
<glyph unicode="Y" horiz-adv-x="609" d="M565 718q2 2 9 2l9 -2l-272 -412v-304q-3 -2 -8 -2l-7 2v303l-264 413q3 2 10 2l8 -2l254 -398z" />
<glyph unicode="Z" horiz-adv-x="568" d="M72 720h433q3 -8 0 -16l-443 -689h456q2 -9 2 -8l-2 -9v2h-473q-3 8 0 16l443 689h-416q1 -2 0 -2q-2 0 -2 8q0 3 2 9z" />
<glyph unicode="`" horiz-adv-x="238" d="M56 796q5 8 11 10l124 -152q-3 -7 -10 -8z" />
<glyph unicode="a" horiz-adv-x="511" d="M98 509q78 27 160 27q84 0 122.5 -39.5t38.5 -129.5v-366q-7 -3 -13 0v134q-15 -65 -70 -105t-123 -40q-76 0 -115.5 38.5t-39.5 108.5q0 69 47 110t135 41q79 0 165 -11v90q0 82 -33.5 118.5t-115.5 36.5q-37 0 -75 -7t-57 -13l-20 -7q-6 3 -6 14zM405 265 q-70 11 -161 11q-82 0 -127 -36.5t-45 -102.5q0 -63 35 -98t101 -35q85 0 141 55t56 150v56z" />
<glyph unicode="b" horiz-adv-x="555" d="M111 748v-340q25 60 74 94t107 34q94 0 143 -69.5t49 -203.5t-50.5 -203.5t-148.5 -69.5q-60 0 -106.5 37t-67.5 96v-121q-1 -2 -7 -2l-8 2v746q2 2 8 2zM469 263q0 258 -178 258q-74 0 -126 -55.5t-54 -123.5v-142q0 -72 48.5 -133.5t124.5 -61.5q185 0 185 258z" />
<glyph unicode="c" horiz-adv-x="446" d="M277 521q-95 0 -143.5 -65.5t-48.5 -192.5t48.5 -192.5t143.5 -65.5q30 0 57.5 6.5t40.5 13.5l13 7q7 -3 9 -13q-46 -29 -121 -29q-101 0 -153.5 69.5t-52.5 203.5t51.5 203.5t151.5 69.5q32 0 59.5 -5.5t39.5 -10.5l12 -6q0 -10 -7 -13q-38 20 -100 20z" />
<glyph unicode="d" horiz-adv-x="555" d="M263 536q62 0 109 -33t72 -96v341q2 2 7 2l8 -2v-746q-2 -2 -8 -2l-7 2v121q-22 -61 -65.5 -97t-108.5 -36q-98 0 -148.5 69.5t-50.5 203.5t49 203.5t143 69.5zM444 341q-2 69 -52.5 124.5t-127.5 55.5q-178 0 -178 -258t185 -258q81 0 127 61t46 134v141z" />
<glyph unicode="e" horiz-adv-x="508" d="M434 259h-348q4 -133 47 -193.5t136 -60.5q39 0 74 11t51 22l15 11q9 -2 9 -11q-6 -5 -17 -13t-50.5 -21.5t-84.5 -13.5q-195 0 -195 276q0 136 54 203t146 67q84 0 129 -51t45 -128q0 -27 -2.5 -51.5t-5.5 -35.5zM430 360q0 68 -40 114.5t-119 46.5q-86 0 -134.5 -61.5 t-50.5 -185.5h337l6 53q1 16 1 33z" />
<glyph unicode="f" horiz-adv-x="342" d="M118 590q0 86 32.5 123t107.5 37q20 0 40.5 -2.5t31.5 -5.5l11 -2q2 -8 -3 -13q-34 8 -76 8q-72 0 -100.5 -33t-28.5 -111v-65h174v-15h-174v-509q-4 -2 -7.5 -2t-5.5 1l-2 1v509h-79q-2 4 -2 7.5t1 5.5l1 2h79v64z" />
<glyph unicode="g" horiz-adv-x="513" d="M351 511l125 23q4 -7 2 -15l-110 -20q53 -45 53 -130q0 -78 -45.5 -122t-127.5 -44q-38 0 -71 11q-52 -48 -52 -99q0 -31 26 -48t65 -21t84 -10.5t84 -15.5t65 -37.5t26 -75.5q0 -66 -59.5 -111.5t-174.5 -45.5q-94 0 -141.5 42t-47.5 106q0 91 89 158q-31 20 -31 57 q0 56 53 106q-88 39 -88 150q0 79 45.5 123t127.5 44q61 0 103 -25zM248 218q74 0 116 40t42 111q0 72 -42 112t-116 40t-116 -40t-42 -112q0 -71 42 -111t116 -40zM240 -235q100 0 160 39t60 102q0 50 -35.5 77t-80 32.5t-103 13t-86.5 19.5q-88 -59 -88 -149q0 -62 46 -98 t127 -36z" />
<glyph unicode="h" horiz-adv-x="550" d="M458 389v-387q-7 -5 -14 0v386q0 64 -37 99t-102 35q-137 0 -195 -150v-370q-7 -5 -14 0v746q7 5 14 0v-345q60 133 197 133q70 0 110.5 -39.5t40.5 -107.5z" />
<glyph unicode="i" horiz-adv-x="214" d="M114 524v-522q-1 -2 -7 -2l-7 2v522q1 2 7 2zM121 694v-20q-5 -4 -14 -4l-14 4v20q6 4 14 4z" />
<glyph unicode="j" horiz-adv-x="214" d="M100 -92v616q7 5 14 0v-615q0 -159 -122 -159q-38 0 -67 16q0 7 5 12q25 -14 62 -14q55 0 81.5 34t26.5 110zM120 697v-20q-5 -4 -14 -4l-14 4v20q6 4 14 4z" />
<glyph unicode="k" horiz-adv-x="492" d="M250 282l174 243q8 3 17 0l-179 -249l203 -273q-1 -3 -8 -3l-9 3l-197 265h-141v-267q-7 -3 -14 0v748q7 3 14 0v-467h140z" />
<glyph unicode="l" horiz-adv-x="218" d="M116 748v-746q-1 -2 -7 -2l-7 2v746q1 2 7 2z" />
<glyph unicode="m" horiz-adv-x="847" d="M432 401q58 135 185 135q64 0 101 -39t37 -108v-387q-7 -5 -14 0v386q0 63 -33 98.5t-92 35.5q-126 0 -184 -153v-367q-7 -5 -14 0v386q0 63 -33 98.5t-92 35.5q-125 0 -183 -150v-370q-7 -5 -14 0v522q7 5 14 0v-120q32 68 76 100t108 32q61 0 97.5 -35.5t40.5 -99.5z " />
<glyph unicode="n" horiz-adv-x="550" d="M458 389v-387q-7 -5 -14 0v386q0 64 -37 99t-102 35q-134 0 -195 -150v-370q-7 -5 -14 0v522q7 5 14 0v-121q64 133 197 133q70 0 110.5 -39.5t40.5 -107.5z" />
<glyph unicode="o" horiz-adv-x="538" d="M71 263q0 144 50.5 208.5t147.5 64.5t147.5 -64.5t50.5 -208.5t-50.5 -208.5t-147.5 -64.5t-147.5 64.5t-50.5 208.5zM453 263q0 140 -47 199.5t-137 59.5t-137 -59.5t-47 -199.5t47 -199.5t137 -59.5t137 59.5t47 199.5z" />
<glyph unicode="p" horiz-adv-x="555" d="M292 -10q-58 0 -107 34t-74 94v-366q-2 -2 -7 -2l-8 2v772q2 2 8 2l7 -2v-121q21 59 67.5 96t106.5 37q199 0 199 -273t-192 -273zM111 184q2 -68 54 -123.5t126 -55.5q178 0 178 258t-185 258q-76 0 -124.5 -61.5t-48.5 -133.5v-142z" />
<glyph unicode="q" horiz-adv-x="555" d="M444 -248v366q-25 -60 -74 -94t-107 -34q-192 0 -192 273t199 273q60 0 106.5 -37t67.5 -96v121q1 2 7 2l8 -2v-772q-2 -2 -8 -2zM86 263q0 -258 178 -258q74 0 126 55.5t54 123.5v142q0 72 -48.5 133.5t-124.5 61.5q-185 0 -185 -258z" />
<glyph unicode="r" horiz-adv-x="385" d="M110 401q54 135 162 135q50 0 81 -20q-2 -9 -9 -13q-32 19 -77 19q-101 0 -157 -153v-368q-7 -3 -14 0v524q7 3 14 0v-124z" />
<glyph unicode="s" horiz-adv-x="443" d="M67 396q0 140 169 140q30 0 60.5 -5t45.5 -11l16 -5q2 -10 -6 -14q-52 21 -115 21q-156 0 -156 -126q0 -16 5 -30.5t11 -24.5t18.5 -19.5t20.5 -15t24 -12t22 -8.5t22.5 -6.5t17.5 -4.5q32 -9 47.5 -14t41.5 -17.5t39 -26t23.5 -36.5t10.5 -52q0 -66 -43.5 -102.5 t-126.5 -36.5q-40 0 -77 7.5t-53 14.5l-17 8q-1 2 1 7t5 6q58 -29 139 -29q72 0 115 30.5t43 94.5q0 32 -10 54t-37.5 37.5t-41 20.5t-54.5 17l-9 3q-34 9 -55.5 17.5t-46 24t-37 39t-12.5 54.5z" />
<glyph unicode="t" horiz-adv-x="340" d="M314 10q4 -5 2 -12q-26 -8 -66 -8q-75 0 -103.5 43.5t-28.5 133.5v345h-81q-2 3 -2 7l2 7h81v105q4 6 14 6v-111h170q2 -2 2 -7l-2 -7h-170v-345q0 -85 25 -124t93 -39q17 0 33 1.5t23 2.5z" />
<glyph unicode="u" horiz-adv-x="550" d="M92 143v381q7 5 14 0v-380q0 -65 37.5 -102.5t101.5 -37.5q134 0 195 150v370q7 5 14 0v-522q-7 -5 -14 0v121q-64 -133 -197 -133q-69 0 -110 42t-41 111z" />
<glyph unicode="v" horiz-adv-x="495" d="M442 524q3 2 8 2l7 -2l-208 -528h-1l-211 528q2 2 8 2l7 -2l162 -404l35 -92l33 89z" />
<glyph unicode="w" horiz-adv-x="788" d="M733 524q3 2 7 2l8 -2l-179 -527h-1l-137 387l-36 111l-37 -111l-137 -387h-1l-179 527q2 2 8 2l7 -2l143 -421l22 -72l23 72l148 421h5l148 -421l23 -72l22 72z" />
<glyph unicode="x" horiz-adv-x="475" d="M246 268l190 -266q-7 -5 -18 0l-180 253l-181 -253q-5 -2 -9.5 -2t-6.5 1l-2 1l190 266l-188 256q4 2 8.5 2t6.5 -1l3 -1l179 -243l178 243q9 5 18 0z" />
<glyph unicode="y" horiz-adv-x="517" d="M479 524l-251 -665q-23 -61 -44 -85t-57 -24l-43 5q-3 7 1 14q14 -5 41 -5q32 0 49.5 22t40.5 83l49 130h-1l-228 525q2 2 8 2l8 -2l220 -507h1l190 507q2 2 8 2z" />
<glyph unicode="z" horiz-adv-x="441" d="M61 14h327q3 -7 0 -14h-343q-3 8 0 15l322 497h-297q-3 7 0 14h313q3 -8 0 -15z" />
<glyph unicode="&#xa8;" horiz-adv-x="455" d="M171 639v-20q-5 -4 -14 -4l-14 4v20q6 4 14 4zM305 639v-20q-5 -4 -14 -4l-14 4v20q6 4 14 4z" />
<glyph unicode="&#xad;" horiz-adv-x="288" />
<glyph unicode="&#xaf;" horiz-adv-x="407" d="M324 639h-255q-3 7 0 15h255q3 -7 0 -15z" />
<glyph unicode="&#xb4;" horiz-adv-x="224" d="M38 653l124 152q6 -1 11 -10l-125 -150q-7 1 -10 8z" />
<glyph unicode="&#xb8;" horiz-adv-x="296" d="M138 36l-12 -72q122 3 122 -77q0 -96 -106 -96q-48 0 -88 27q1 6 8 11q38 -24 81 -24q91 0 91 82q0 64 -98 64h-20l-5 6l13 79h14z" />
<glyph unicode="&#xc0;" horiz-adv-x="637" d="M320 723l292 -722q-3 -2 -8 -2l-9 2l-91 227h-371l-91 -227q-3 -2 -9 -2l-8 2l291 722q2 2 4 0zM139 243h359l-180 446zM225 909q5 8 11 10l124 -152q-3 -7 -10 -8z" />
<glyph unicode="&#xc1;" horiz-adv-x="637" d="M320 723l292 -722q-3 -2 -8 -2l-9 2l-91 227h-371l-91 -227q-3 -2 -9 -2l-8 2l291 722q2 2 4 0zM139 243h359l-180 446zM283 769l124 152q6 -1 11 -10l-125 -150q-7 1 -10 8z" />
<glyph unicode="&#xc2;" horiz-adv-x="637" d="M320 723l292 -722q-3 -2 -8 -2l-9 2l-91 227h-371l-91 -227q-3 -2 -9 -2l-8 2l291 722q2 2 4 0zM139 243h359l-180 446zM196 768q-6 2 -8 10l127 101h13l125 -101q0 -8 -8 -10l-123 98z" />
<glyph unicode="&#xc3;" horiz-adv-x="637" d="M320 723l292 -722q-3 -2 -8 -2l-9 2l-91 227h-371l-91 -227q-3 -2 -9 -2l-8 2l291 722q2 2 4 0zM139 243h359l-180 446zM373 801q33 0 46 33q8 -2 12 -7q0 -2 -1.5 -4.5t-6 -9.5t-10.5 -12.5t-17.5 -10t-24.5 -4.5q-23 0 -55 20t-50 20q-16 0 -27.5 -8.5t-14.5 -17.5 l-4 -8q-9 1 -12 6q1 5 4 12t18.5 19t38.5 12q18 0 49.5 -20t54.5 -20z" />
<glyph unicode="&#xc4;" horiz-adv-x="637" d="M320 723l292 -722q-3 -2 -8 -2l-9 2l-91 227h-371l-91 -227q-3 -2 -9 -2l-8 2l291 722q2 2 4 0zM139 243h359l-180 446zM265 801v-20q-5 -4 -14 -4l-14 4v20q6 4 14 4zM399 801v-20q-5 -4 -14 -4l-14 4v20q6 4 14 4z" />
<glyph unicode="&#xc5;" horiz-adv-x="637" d="M331 695l281 -694q-3 -2 -8 -2l-9 2l-91 227h-371l-91 -227q-3 -2 -9 -2l-8 2l279 694q-38 4 -61 28t-23 65q0 43 29.5 67.5t69.5 24.5q41 0 70.5 -24t29.5 -68q0 -40 -24.5 -64.5t-63.5 -28.5zM318 867q-40 0 -62 -23t-22 -56q0 -34 22 -58t62 -24q41 0 64 24.5t23 57.5 t-23 56t-64 23zM139 243h359l-180 446z" />
<glyph unicode="&#xc6;" horiz-adv-x="840" d="M473 15h312q3 -7 0 -15h-327v212h-295l-127 -211q-3 -2 -9 -2q-7 0 -9 2l433 719h324q3 -7 0 -15h-302v-334h252q3 -7 0 -15h-252v-341zM172 227h286v476z" />
<glyph unicode="&#xc7;" d="M322 -10l-8 -60q113 3 113 -77q0 -45 -27 -70.5t-80 -25.5q-48 0 -88 27q1 6 8 11q38 -24 81 -24q92 0 92 82q0 64 -89 64h-20l-5 6l9 68q-117 8 -173 98t-56 270q0 186 62.5 278.5t191.5 92.5q48 0 89.5 -8t58.5 -16l17 -7q0 -9 -6 -13q-59 29 -156 29 q-117 0 -179.5 -81t-62.5 -275q0 -100 16.5 -170t49.5 -109.5t75.5 -57t100.5 -17.5q47 0 88.5 7.5t59.5 15.5l18 7q7 -3 7 -12q-58 -33 -176 -33h-11z" />
<glyph unicode="&#xc8;" d="M112 720h379q3 -8 0 -15h-364v-332h314q3 -7 0 -15h-314v-343h374q3 -7 0 -15h-389v720zM211 917q5 8 11 10l124 -152q-3 -7 -10 -8z" />
<glyph unicode="&#xc9;" d="M247 777l129 148q6 -1 10 -10l-130 -146q-7 1 -9 8zM112 720h379q3 -8 0 -15h-364v-332h314q3 -7 0 -15h-314v-343h374q3 -7 0 -15h-389v720z" />
<glyph unicode="&#xca;" d="M174 777q-6 2 -8 10l127 101h13l125 -101q0 -8 -8 -10l-123 98zM112 720h379q3 -8 0 -15h-364v-332h314q3 -7 0 -15h-314v-343h374q3 -7 0 -15h-389v720z" />
<glyph unicode="&#xcb;" d="M259 827v-20q-5 -4 -14 -4l-14 4v20q6 4 14 4zM393 827v-20q-5 -4 -14 -4l-14 4v20q6 4 14 4zM112 720h379q3 -8 0 -15h-364v-332h314q3 -7 0 -15h-314v-343h374q3 -7 0 -15h-389v720z" />
<glyph unicode="&#xcc;" horiz-adv-x="239" d="M112 2v716q2 2 8 2l7 -2v-716h-1q-2 -2 -6 -2zM32 910q5 8 11 10l124 -152q-3 -7 -10 -8z" />
<glyph unicode="&#xcd;" horiz-adv-x="239" d="M112 2v716q2 2 8 2l7 -2v-716h-1q-2 -2 -6 -2zM63 769l124 152q6 -1 11 -10l-125 -150q-7 1 -10 8z" />
<glyph unicode="&#xce;" horiz-adv-x="239" d="M112 2v716q2 2 8 2l7 -2v-716q-2 -2 -7 -2zM-7 775q-6 2 -8 10l127 101h13l125 -101q0 -8 -8 -10l-123 98z" />
<glyph unicode="&#xcf;" horiz-adv-x="239" d="M112 2v716q2 2 8 2l7 -2v-716q-2 -2 -7 -2zM67 816v-20q-5 -4 -14 -4l-14 4v20q6 4 14 4zM201 816v-20q-5 -4 -14 -4l-14 4v20q6 4 14 4z" />
<glyph unicode="&#xd0;" horiz-adv-x="663" d="M118 720h180q99 0 159 -30.5t93 -110.5t33 -219q0 -104 -18.5 -175t-56 -111.5t-88 -57t-122.5 -16.5h-180v352h-89q-3 8 0 15h89v353zM133 15h162q71 0 119.5 16t84.5 54.5t52.5 106t16.5 168.5q0 134 -30.5 210.5t-88 105.5t-154.5 29h-162v-338h183q3 -7 0 -15h-183 v-337z" />
<glyph unicode="&#xd1;" horiz-adv-x="688" d="M561 2l-436 693l2 -116v-577q-4 -2 -8 -2l-7 2v716q3 2 8 2l7 -2l389 -616l48 -78q-3 41 -3 107v587q2 2 8 2l7 -2v-716q-3 -2 -7 -2zM401 802q33 0 46 33q8 -2 12 -7q0 -2 -1.5 -4.5t-6 -9.5t-10.5 -12.5t-17.5 -10t-24.5 -4.5q-23 0 -55 20t-50 20q-16 0 -27.5 -8.5 t-14.5 -16.5l-4 -9q-9 1 -12 6q1 5 4 12t18.5 19t38.5 12q18 0 49.5 -20t54.5 -20z" />
<glyph unicode="&#xd2;" horiz-adv-x="678" d="M79 360q0 370 260 370t260 -370t-260 -370t-260 370zM584 360q0 183 -64 269t-181 86q-245 0 -245 -355t245 -355q117 0 181 86t64 269zM259 912q3 8 10 10l129 -148q-2 -7 -9 -8z" />
<glyph unicode="&#xd3;" horiz-adv-x="678" d="M79 360q0 370 260 370t260 -370t-260 -370t-260 370zM584 360q0 183 -64 269t-181 86q-245 0 -245 -355t245 -355q117 0 181 86t64 269zM294 773l129 148q6 -1 10 -10l-130 -146q-7 1 -9 8z" />
<glyph unicode="&#xd4;" horiz-adv-x="678" d="M79 360q0 370 260 370t260 -370t-260 -370t-260 370zM584 360q0 183 -64 269t-181 86q-245 0 -245 -355t245 -355q117 0 181 86t64 269zM216 777q-6 2 -8 10l127 101h13l125 -101q0 -8 -8 -10l-123 98z" />
<glyph unicode="&#xd5;" horiz-adv-x="676" d="M78 360q0 370 260 370t260 -370t-260 -370t-260 370zM583 360q0 183 -64 269t-181 86q-245 0 -245 -355t245 -355q117 0 181 86t64 269zM393 802q33 0 46 33q8 -2 12 -7q0 -2 -1.5 -4.5t-6 -9.5t-10.5 -12.5t-17.5 -10t-24.5 -4.5q-23 0 -55 20t-50 20q-16 0 -27.5 -8.5 t-14.5 -16.5l-4 -9q-9 1 -12 6q1 5 4 12t18.5 19t38.5 12q18 0 49.5 -20t54.5 -20z" />
<glyph unicode="&#xd6;" horiz-adv-x="678" d="M79 360q0 370 260 370t260 -370t-260 -370t-260 370zM584 360q0 183 -64 269t-181 86q-245 0 -245 -355t245 -355q117 0 181 86t64 269zM284 833v-20q-5 -4 -14 -4l-14 4v20q6 4 14 4zM418 833v-20q-5 -4 -14 -4l-14 4v20q6 4 14 4z" />
<glyph unicode="&#xd8;" horiz-adv-x="678" d="M565 750l-50 -90q84 -92 84 -300q0 -370 -260 -370q-102 0 -164 58l-49 -89q-7 0 -12 7l51 92q-86 92 -86 302q0 370 260 370q105 0 166 -60l48 86q7 -2 12 -6zM339 715q-245 0 -245 -355q0 -200 79 -288l324 583q-60 60 -158 60zM183 62q60 -57 156 -57q117 0 181 86 t64 269q0 197 -77 285z" />
<glyph unicode="&#xd9;" horiz-adv-x="662" d="M556 718v-502q0 -106 -60 -166t-166 -60t-165 59.5t-59 166.5v502q3 2 8 2l7 -2v-503q0 -99 55.5 -154.5t154.5 -55.5t154.5 55.5t55.5 154.5v503q3 2 6 2zM242 920q5 8 11 10l124 -152q-3 -7 -10 -8z" />
<glyph unicode="&#xda;" horiz-adv-x="662" d="M556 718v-502q0 -106 -60 -166t-166 -60t-165 59.5t-59 166.5v502q3 2 8 2l7 -2v-503q0 -99 55.5 -154.5t154.5 -55.5t154.5 55.5t55.5 154.5v503q3 2 6 2zM281 768l124 152q6 -1 11 -10l-125 -150q-7 1 -10 8z" />
<glyph unicode="&#xdb;" horiz-adv-x="662" d="M556 718v-502q0 -106 -60 -166t-166 -60t-165 59.5t-59 166.5v502q3 2 8 2l7 -2v-503q0 -99 55.5 -154.5t154.5 -55.5t154.5 55.5t55.5 154.5v503q3 2 6 2zM204 776q-6 2 -8 10l127 101h13l125 -101q0 -8 -8 -10l-123 98z" />
<glyph unicode="&#xdc;" horiz-adv-x="662" d="M556 718v-502q0 -106 -60 -166t-166 -60t-165 59.5t-59 166.5v502q3 2 8 2l7 -2v-503q0 -99 55.5 -154.5t154.5 -55.5t154.5 55.5t55.5 154.5v503q3 2 6 2zM277 839v-20q-5 -4 -14 -4l-14 4v20q6 4 14 4zM411 839v-20q-5 -4 -14 -4l-14 4v20q6 4 14 4z" />
<glyph unicode="&#xdd;" horiz-adv-x="609" d="M565 718q2 2 9 2l9 -2l-272 -412v-304q-3 -2 -8 -2l-7 2v303l-264 413q3 2 10 2l8 -2l253 -396zM263 771l124 152q6 -1 11 -10l-125 -150q-7 1 -10 8z" />
<glyph unicode="&#xde;" horiz-adv-x="598" d="M112 718q1 2 8 2l7 -2v-151h225q87 0 136 -52t49 -144q0 -91 -49 -142t-136 -51h-225v-176q0 -2 -7 -2l-8 2v716zM127 552v-359h227q79 0 123.5 47t44.5 130q0 86 -44.5 134t-123.5 48h-227z" />
<glyph unicode="&#xdf;" horiz-adv-x="569" d="M441 485q-1 -2 -14.5 0.5t-34.5 -3t-41 -13.5t-34.5 -30.5t-14.5 -54.5q0 -34 22 -58.5t53.5 -40t63 -33.5t53.5 -50.5t22 -78.5q0 -59 -39 -96t-114 -37q-31 0 -55 4t-32 8l-9 4q0 9 6 12q36 -14 88 -14q73 0 107 34t34 83q0 45 -22 76t-53.5 48t-63 33.5t-53.5 42.5 t-22 64q0 29 10 51t25.5 33t34 19t34.5 8.5t27 2.5t13 0q14 40 14 83q1 65 -39 109.5t-121 44.5q-176 0 -176 -180v-554q-1 -2 -7 -2l-7 2v554q0 194 191 194q87 0 130 -50t43 -119q0 -45 -19 -96z" />
<glyph unicode="&#xe0;" horiz-adv-x="511" d="M98 509q78 27 160 27q84 0 122.5 -39.5t38.5 -129.5v-366q-7 -3 -14 0l1 133q-17 -64 -71.5 -104t-121.5 -40q-155 0 -155 147q0 151 182 151q79 0 165 -11v90q0 82 -33.5 118.5t-115.5 36.5q-37 0 -75 -7t-57 -13l-20 -7q-6 3 -6 14zM405 265q-63 10 -161 10 q-88 0 -130 -33.5t-42 -104.5q0 -133 136 -133q85 0 141 55t56 150v56zM147 763q5 8 11 10l124 -152q-3 -7 -10 -8z" />
<glyph unicode="&#xe1;" horiz-adv-x="511" d="M201 621l124 152q6 -1 11 -10l-125 -150q-7 1 -10 8zM98 509q78 27 160 27q84 0 122.5 -39.5t38.5 -129.5v-366q-7 -3 -14 0l1 133q-17 -64 -71.5 -104t-121.5 -40q-155 0 -155 147q0 151 182 151q79 0 165 -11v90q0 82 -33.5 118.5t-115.5 36.5q-37 0 -75 -7t-57 -13 l-20 -7q-6 3 -6 14zM405 265q-63 10 -161 10q-88 0 -130 -33.5t-42 -104.5q0 -133 136 -133q85 0 141 55t56 150v56z" />
<glyph unicode="&#xe2;" horiz-adv-x="511" d="M125 609q-6 2 -8 10l127 101h13l125 -101q0 -8 -8 -10l-123 98zM98 509q78 27 160 27q84 0 122.5 -39.5t38.5 -129.5v-366q-7 -3 -14 0l1 133q-17 -64 -71.5 -104t-121.5 -40q-155 0 -155 147q0 151 182 151q79 0 165 -11v90q0 82 -33.5 118.5t-115.5 36.5q-37 0 -75 -7 t-57 -13l-20 -7q-6 3 -6 14zM405 265q-63 10 -161 10q-88 0 -130 -33.5t-42 -104.5q0 -133 136 -133q85 0 141 55t56 150v56z" />
<glyph unicode="&#xe3;" horiz-adv-x="511" d="M98 509q78 27 160 27q84 0 122.5 -39.5t38.5 -129.5v-366q-7 -3 -14 0l1 133q-17 -64 -71.5 -104t-121.5 -40q-155 0 -155 147q0 151 182 151q79 0 165 -11v90q0 82 -33.5 118.5t-115.5 36.5q-37 0 -75 -7t-57 -13l-20 -7q-6 3 -6 14zM405 265q-63 10 -161 10 q-88 0 -130 -33.5t-42 -104.5q0 -133 136 -133q85 0 141 55t56 150v56zM311 663q33 0 46 33q8 -2 12 -7q0 -2 -1.5 -4.5t-6 -9.5t-10.5 -12.5t-17.5 -10t-24.5 -4.5q-23 0 -55 20t-50 20q-16 0 -27.5 -8.5t-14.5 -17.5l-4 -8q-9 1 -12 6q1 5 4 12t18.5 19t38.5 12 q18 0 49.5 -20t54.5 -20z" />
<glyph unicode="&#xe4;" horiz-adv-x="511" d="M98 509q78 27 160 27q84 0 122.5 -39.5t38.5 -129.5v-366q-7 -3 -14 0l1 133q-17 -64 -71.5 -104t-121.5 -40q-155 0 -155 147q0 151 182 151q79 0 165 -11v90q0 82 -33.5 118.5t-115.5 36.5q-37 0 -75 -7t-57 -13l-20 -7q-6 3 -6 14zM405 265q-63 10 -161 10 q-88 0 -130 -33.5t-42 -104.5q0 -133 136 -133q85 0 141 55t56 150v56zM196 701v-18q-4 -3 -12 -3l-12 3v18q5 3 12 3zM330 701v-18q-4 -3 -12 -3l-12 3v18q5 3 12 3z" />
<glyph unicode="&#xe5;" horiz-adv-x="511" d="M98 509q78 27 160 27q84 0 122.5 -39.5t38.5 -129.5v-366q-7 -3 -14 0l1 133q-17 -64 -71.5 -104t-121.5 -40q-155 0 -155 147q0 151 182 151q79 0 165 -11v90q0 82 -33.5 118.5t-115.5 36.5q-37 0 -75 -7t-57 -13l-20 -7q-6 3 -6 14zM405 265q-63 10 -161 10 q-88 0 -130 -33.5t-42 -104.5q0 -133 136 -133q85 0 141 55t56 150v56zM254 604q-46 0 -74.5 26t-28.5 73q0 46 30.5 71.5t73.5 25.5q42 0 73.5 -25.5t31.5 -71.5t-30.5 -72.5t-75.5 -26.5zM345 703q0 35 -24 59t-67 24q-42 0 -65 -24.5t-23 -58.5q0 -35 23 -60.5t65 -25.5 q43 0 67 26t24 60z" />
<glyph unicode="&#xe6;" horiz-adv-x="784" d="M402 408q43 128 162 128q78 0 117.5 -50.5t39.5 -128.5q0 -23 -2.5 -45t-5.5 -32l-3 -11h-311q8 -264 164 -264q36 0 66.5 10.5t42.5 21.5l12 11q8 -3 11 -11q-5 -5 -14.5 -13t-44 -21t-74.5 -13q-58 0 -101 36t-62 110q-1 3 -2.5 16t-1.5 16q0 -3 -1.5 -15.5t-2.5 -15.5 q-42 -147 -193 -147q-63 0 -101.5 39.5t-38.5 107.5q0 147 170 147h156v80q0 85 -34.5 121t-104.5 36q-35 0 -70 -6.5t-53 -12.5l-18 -7q-10 5 -6 14q67 27 149 27q133 0 150 -128v-22q1 2 3 10.5t2 11.5zM706 360q0 69 -35 115t-107 46t-117.5 -58.5t-47.5 -178.5h300 q7 31 7 76zM384 269h-152q-83 0 -121 -32.5t-38 -99.5q0 -64 33.5 -98t91.5 -34q82 0 134 53t52 152v59z" />
<glyph unicode="&#xe7;" horiz-adv-x="446" d="M261 -10l-11 -55q45 1 71.5 -19.5t26.5 -55.5q0 -89 -101 -89q-47 0 -84 26q1 5 8 10q37 -23 77 -23q87 0 87 76q0 31 -22 46.5t-53 15.5h-20l-4 6l12 63q-178 20 -178 272q0 134 51.5 203.5t151.5 69.5q32 0 59.5 -5.5t39.5 -10.5l12 -6q0 -10 -7 -13q-38 20 -100 20 q-95 0 -143.5 -65.5t-48.5 -192.5t48.5 -192.5t143.5 -65.5q30 0 57.5 6.5t40.5 13.5l13 7q7 -3 9 -13q-46 -29 -121 -29h-15z" />
<glyph unicode="&#xe8;" horiz-adv-x="508" d="M434 259h-348q4 -133 47 -193.5t136 -60.5q39 0 74 11t51 22l15 11q9 -2 9 -11q-6 -5 -17 -13t-50.5 -21.5t-84.5 -13.5q-195 0 -195 276q0 136 54 203t146 67q84 0 129 -51t45 -128q0 -27 -2.5 -51.5t-5.5 -35.5zM430 360q0 68 -40 114.5t-119 46.5q-86 0 -134.5 -61.5 t-50.5 -185.5h337l6 53q1 16 1 33zM188 759q5 8 11 10l124 -152q-3 -7 -10 -8z" />
<glyph unicode="&#xe9;" horiz-adv-x="508" d="M434 259h-348q4 -133 47 -193.5t136 -60.5q39 0 74 11t51 22l15 11q9 -2 9 -11q-6 -5 -17 -13t-50.5 -21.5t-84.5 -13.5q-195 0 -195 276q0 136 54 203t146 67q84 0 129 -51t45 -128q0 -27 -2.5 -51.5t-5.5 -35.5zM430 360q0 68 -40 114.5t-119 46.5q-86 0 -134.5 -61.5 t-50.5 -185.5h337l6 53q1 16 1 33zM207 617l124 152q6 -1 11 -10l-125 -150q-7 1 -10 8z" />
<glyph unicode="&#xea;" horiz-adv-x="508" d="M434 259h-348q4 -133 47 -193.5t136 -60.5q39 0 74 11t51 22l15 11q9 -2 9 -11q-6 -5 -17 -13t-50.5 -21.5t-84.5 -13.5q-195 0 -195 276q0 136 54 203t146 67q84 0 129 -51t45 -128q0 -27 -2.5 -51.5t-5.5 -35.5zM430 360q0 68 -40 114.5t-119 46.5q-86 0 -134.5 -61.5 t-50.5 -185.5h337l6 53q1 16 1 33zM147 601q-6 2 -8 10l127 101h13l125 -101q0 -8 -8 -10l-123 98z" />
<glyph unicode="&#xeb;" horiz-adv-x="508" d="M434 259h-348q4 -133 47 -193.5t136 -60.5q39 0 74 11t51 22l15 11q9 -2 9 -11q-6 -5 -17 -13t-50.5 -21.5t-84.5 -13.5q-195 0 -195 276q0 136 54 203t146 67q84 0 129 -51t45 -128q0 -27 -2.5 -51.5t-5.5 -35.5zM430 360q0 68 -40 114.5t-119 46.5q-86 0 -134.5 -61.5 t-50.5 -185.5h337l6 53q1 16 1 33zM220 682v-20q-5 -4 -14 -4l-14 4v20q6 4 14 4zM354 682v-20q-5 -4 -14 -4l-14 4v20q6 4 14 4z" />
<glyph unicode="&#xec;" horiz-adv-x="214" d="M114 524v-522q-1 -2 -7 -2l-7 2v522q1 2 7 2zM17 762q5 8 11 10l124 -152q-3 -7 -10 -8z" />
<glyph unicode="&#xed;" horiz-adv-x="214" d="M114 524v-522q-1 -2 -7 -2l-7 2v522q1 2 7 2zM54 621l124 152q6 -1 11 -10l-125 -150q-7 1 -10 8z" />
<glyph unicode="&#xee;" horiz-adv-x="214" d="M114 524v-522q-1 -2 -7 -2l-7 2v522q1 2 7 2zM-17 601q-6 2 -8 10l127 101h13l125 -101q0 -8 -8 -10l-123 98z" />
<glyph unicode="&#xef;" horiz-adv-x="214" d="M114 524v-522q-1 -2 -7 -2l-7 2v522q1 2 7 2zM52 692v-20q-5 -4 -14 -4l-14 4v20q6 4 14 4zM186 692v-20q-5 -4 -14 -4l-14 4v20q6 4 14 4z" />
<glyph unicode="&#xf0;" horiz-adv-x="550" d="M420 711l-78 -54q134 -126 134 -408q0 -259 -205 -259q-98 0 -149 66.5t-51 195.5q0 128 50 195t145 67q154 0 191 -146q-29 187 -129 280l-97 -67q-8 5 -9 13l94 64q-68 57 -168 75q-4 11 3 17q108 -22 179 -82l81 55q7 -3 9 -12zM86 252q0 -247 185 -247q96 0 142.5 60 t46.5 186q0 248 -195 248q-88 0 -133.5 -63t-45.5 -184z" />
<glyph unicode="&#xf1;" horiz-adv-x="550" d="M458 389v-387q-7 -5 -14 0v386q0 64 -37 99t-102 35q-134 0 -195 -150v-370q-7 -5 -14 0v522q7 5 14 0v-121q64 133 197 133q70 0 110.5 -39.5t40.5 -107.5zM340 676q33 0 46 33q8 -2 12 -7q0 -2 -1.5 -4.5t-6 -9.5t-10.5 -12.5t-17.5 -10t-24.5 -4.5q-23 0 -55 20 t-50 20q-16 0 -27.5 -8.5t-15.5 -16.5l-3 -9q-9 1 -12 6q1 5 4 12t18.5 19t38.5 12q18 0 49.5 -20t54.5 -20z" />
<glyph unicode="&#xf2;" horiz-adv-x="538" d="M71 263q0 144 50.5 208.5t147.5 64.5t147.5 -64.5t50.5 -208.5t-50.5 -208.5t-147.5 -64.5t-147.5 64.5t-50.5 208.5zM453 263q0 140 -47 199.5t-137 59.5t-137 -59.5t-47 -199.5t47 -199.5t137 -59.5t137 59.5t47 199.5zM177 761q5 8 11 10l124 -152q-3 -7 -10 -8z" />
<glyph unicode="&#xf3;" horiz-adv-x="538" d="M71 263q0 144 50.5 208.5t147.5 64.5t147.5 -64.5t50.5 -208.5t-50.5 -208.5t-147.5 -64.5t-147.5 64.5t-50.5 208.5zM453 263q0 140 -47 199.5t-137 59.5t-137 -59.5t-47 -199.5t47 -199.5t137 -59.5t137 59.5t47 199.5zM198 618l124 152q6 -1 11 -10l-125 -150 q-7 1 -10 8z" />
<glyph unicode="&#xf4;" horiz-adv-x="538" d="M71 263q0 144 50.5 208.5t147.5 64.5t147.5 -64.5t50.5 -208.5t-50.5 -208.5t-147.5 -64.5t-147.5 64.5t-50.5 208.5zM453 263q0 140 -47 199.5t-137 59.5t-137 -59.5t-47 -199.5t47 -199.5t137 -59.5t137 59.5t47 199.5zM144 601q-6 2 -8 10l127 101h13l125 -101 q0 -8 -8 -10l-123 98z" />
<glyph unicode="&#xf5;" horiz-adv-x="538" d="M71 263q0 144 50.5 208.5t147.5 64.5t147.5 -64.5t50.5 -208.5t-50.5 -208.5t-147.5 -64.5t-147.5 64.5t-50.5 208.5zM453 263q0 140 -47 199.5t-137 59.5t-137 -59.5t-47 -199.5t47 -199.5t137 -59.5t137 59.5t47 199.5zM326 664q33 0 46 33q8 -2 12 -7q0 -2 -1.5 -4.5 t-6 -9.5t-10.5 -12.5t-17.5 -10t-24.5 -4.5q-23 0 -55 20t-50 20q-16 0 -27.5 -8.5t-15.5 -16.5l-3 -9q-9 1 -12 6q1 5 4 12t18.5 19t38.5 12q18 0 49.5 -20t54.5 -20z" />
<glyph unicode="&#xf6;" horiz-adv-x="538" d="M71 263q0 144 50.5 208.5t147.5 64.5t147.5 -64.5t50.5 -208.5t-50.5 -208.5t-147.5 -64.5t-147.5 64.5t-50.5 208.5zM453 263q0 140 -47 199.5t-137 59.5t-137 -59.5t-47 -199.5t47 -199.5t137 -59.5t137 59.5t47 199.5zM217 698v-20q-5 -4 -14 -4l-14 4v20q6 4 14 4z M351 698v-20q-5 -4 -14 -4l-14 4v20q6 4 14 4z" />
<glyph unicode="&#xf8;" horiz-adv-x="538" d="M442 556l-38 -70q63 -65 63 -223q0 -144 -50.5 -208.5t-147.5 -64.5q-73 0 -117 34l-34 -63q-8 0 -12 6l36 65q-71 65 -71 231q0 144 50.5 208.5t147.5 64.5q79 0 125 -40l36 66q8 0 12 -6zM269 522q-90 0 -137 -59.5t-47 -199.5q0 -157 64 -218l238 438q-42 39 -118 39z M159 36q40 -32 110 -32q90 0 137 59.5t47 199.5q0 149 -56 210z" />
<glyph unicode="&#xf9;" horiz-adv-x="550" d="M92 143v381q7 5 14 0v-380q0 -65 37.5 -102.5t101.5 -37.5q134 0 195 150v370q7 5 14 0v-522q-7 -5 -14 0v121q-64 -133 -197 -133q-69 0 -110 42t-41 111zM182 761q5 8 11 10l124 -152q-3 -7 -10 -8z" />
<glyph unicode="&#xfa;" horiz-adv-x="550" d="M219 626l117 143q6 -1 11 -10l-118 -141q-7 1 -10 8zM92 143v381q7 5 14 0v-380q0 -65 37.5 -102.5t101.5 -37.5q134 0 195 150v370q7 5 14 0v-522q-7 -5 -14 0v121q-64 -133 -197 -133q-69 0 -110 42t-41 111z" />
<glyph unicode="&#xfb;" horiz-adv-x="550" d="M92 143v381q7 5 14 0v-380q0 -65 37.5 -102.5t101.5 -37.5q134 0 195 150v370q7 5 14 0v-522q-7 -5 -14 0v121q-64 -133 -197 -133q-69 0 -110 42t-41 111zM159 610q-6 2 -8 10l115 92h13l118 -95q0 -8 -8 -10l-116 92z" />
<glyph unicode="&#xfc;" horiz-adv-x="550" d="M92 143v381q7 5 14 0v-380q0 -65 37.5 -102.5t101.5 -37.5q134 0 195 150v370q7 5 14 0v-522q-7 -5 -14 0v121q-64 -133 -197 -133q-69 0 -110 42t-41 111zM214 701v-20q-5 -4 -14 -4l-14 4v20q6 4 14 4zM348 701v-20q-5 -4 -14 -4l-14 4v20q6 4 14 4z" />
<glyph unicode="&#xfd;" horiz-adv-x="517" d="M479 524l-251 -665q-23 -61 -44 -85t-57 -24l-43 5q-3 7 1 14q14 -5 41 -5q32 0 49.5 22t40.5 83l49 130h-1l-228 525q2 2 8 2l8 -2l220 -507h1l190 507q2 2 8 2zM202 620l124 152q6 -1 11 -10l-125 -150q-7 1 -10 8z" />
<glyph unicode="&#xfe;" horiz-adv-x="555" d="M292 -10q-58 0 -107 34t-74 94v-367q-2 -2 -7 -2l-8 2v995q2 2 8 2l7 -2v-343q21 59 67.5 96t106.5 37q199 0 199 -273t-192 -273zM111 184q2 -68 54 -123.5t126 -55.5q178 0 178 258t-185 258q-76 0 -124.5 -61.5t-48.5 -133.5v-142z" />
<glyph unicode="&#xff;" horiz-adv-x="517" d="M479 524l-251 -665q-23 -61 -44 -85t-57 -24l-43 5q-3 7 1 14q14 -5 41 -5q32 0 49.5 22t40.5 83l49 130h-1l-228 525q2 2 8 2l8 -2l220 -507h1l190 507q2 2 8 2zM198 703v-20q-5 -4 -14 -4l-14 4v20q6 4 14 4zM342 703v-20q-5 -4 -14 -4l-14 4v20q6 4 14 4z" />
<glyph unicode="&#x100;" horiz-adv-x="637" d="M320 723l292 -722q-3 -2 -8 -2l-9 2l-91 227h-371l-91 -227q-3 -2 -9 -2l-8 2l291 722q2 2 4 0zM139 243h359l-180 446zM441 803h-255q-3 7 0 15h255q3 -7 0 -15z" />
<glyph unicode="&#x101;" horiz-adv-x="511" d="M98 509q78 27 160 27q84 0 122.5 -39.5t38.5 -129.5v-366q-7 -3 -14 0l1 133q-17 -64 -71.5 -104t-121.5 -40q-155 0 -155 147q0 151 182 151q79 0 165 -11v90q0 82 -33.5 118.5t-115.5 36.5q-37 0 -75 -7t-57 -13l-20 -7q-6 3 -6 14zM405 265q-63 10 -161 10 q-88 0 -130 -33.5t-42 -104.5q0 -133 136 -133q85 0 141 55t56 150v56zM384 675h-255q-3 7 0 15h255q3 -7 0 -15z" />
<glyph unicode="&#x102;" horiz-adv-x="637" d="M320 723l292 -722q-3 -2 -8 -2l-9 2l-91 227h-371l-91 -227q-3 -2 -9 -2l-8 2l291 722q2 2 4 0zM139 243h359l-180 446zM318 803q71 0 115 48q7 -4 9 -10q-5 -6 -14 -14.5t-41.5 -23t-68.5 -14.5t-67 13t-44 26l-13 13q3 8 9 9q47 -47 115 -47z" />
<glyph unicode="&#x103;" horiz-adv-x="511" d="M98 509q78 27 160 27q84 0 122.5 -39.5t38.5 -129.5v-366q-7 -3 -13 0v134q-15 -65 -70 -105t-123 -40q-76 0 -115.5 38.5t-39.5 108.5q0 69 47 110t135 41q79 0 165 -11v90q0 82 -33.5 118.5t-115.5 36.5q-37 0 -75 -7t-57 -13l-20 -7q-6 3 -6 14zM405 265 q-70 11 -161 11q-82 0 -127 -36.5t-45 -102.5q0 -63 35 -98t101 -35q85 0 141 55t56 150v56zM254 661q71 0 115 48q7 -4 9 -10q-5 -6 -14 -14.5t-41.5 -23t-68.5 -14.5t-67 13t-44 26l-13 13q3 8 9 9q47 -47 115 -47z" />
<glyph unicode="&#x104;" horiz-adv-x="637" d="M139 243h359l-180 446zM581 -180q12 0 24 3t18 6l6 3q5 -5 6 -11q-20 -16 -56 -16q-38 0 -59 17t-21 48q0 81 94 137l-89 221h-371l-91 -227q-3 -2 -9 -2l-8 2l291 722q2 2 4 0l292 -722q-43 -22 -70 -56.5t-27 -71.5q0 -53 66 -53z" />
<glyph unicode="&#x105;" horiz-adv-x="511" d="M405 265q-63 10 -161 10q-88 0 -130 -33.5t-42 -104.5q0 -133 136 -133q85 0 141 55t56 150v56zM386 -167q12 0 23.5 3t16.5 6l6 3q5 -5 6 -11q-19 -15 -54 -15q-36 0 -56 16.5t-20 45.5q0 42 27 75t70 51l1 127q-17 -64 -71.5 -104t-121.5 -40q-155 0 -155 147 q0 151 182 151q79 0 165 -11v90q0 82 -33.5 118.5t-115.5 36.5q-37 0 -75 -7t-57 -13l-20 -7q-6 3 -6 14q78 27 160 27q84 0 122.5 -39.5t38.5 -129.5v-366q-42 -17 -69 -48.5t-27 -68.5q0 -51 63 -51z" />
<glyph unicode="&#x106;" d="M79 359q0 186 62.5 278.5t191.5 92.5q48 0 89.5 -8t58.5 -16l17 -7q0 -9 -6 -13q-59 29 -156 29q-117 0 -179.5 -81t-62.5 -275q0 -100 16.5 -170t49.5 -109.5t75.5 -57t100.5 -17.5q47 0 88.5 7.5t59.5 15.5l18 7q7 -3 7 -12q-58 -33 -176 -33q-129 0 -191.5 90 t-62.5 279zM267 779l134 143q6 -2 11 -11l-135 -141q-7 3 -10 9z" />
<glyph unicode="&#x107;" horiz-adv-x="446" d="M277 521q-95 0 -143.5 -65.5t-48.5 -192.5t48.5 -192.5t143.5 -65.5q30 0 57.5 6.5t40.5 13.5l13 7q7 -3 9 -13q-46 -29 -121 -29q-101 0 -153.5 69.5t-52.5 203.5t51.5 203.5t151.5 69.5q32 0 59.5 -5.5t39.5 -10.5l12 -6q0 -10 -7 -13q-38 20 -100 20zM211 604l118 145 q6 -1 11 -10l-119 -143q-7 1 -10 8z" />
<glyph unicode="&#x108;" d="M79 359q0 186 62.5 278.5t191.5 92.5q48 0 89.5 -8t58.5 -16l17 -7q0 -9 -6 -13q-59 29 -156 29q-117 0 -179.5 -81t-62.5 -275q0 -100 16.5 -170t49.5 -109.5t75.5 -57t100.5 -17.5q47 0 88.5 7.5t59.5 15.5l18 7q7 -3 7 -12q-58 -33 -176 -33q-129 0 -191.5 90 t-62.5 279zM209 762q-6 2 -8 10l127 101h13l125 -101q0 -8 -8 -10l-123 98z" />
<glyph unicode="&#x109;" horiz-adv-x="446" d="M277 521q-95 0 -143.5 -65.5t-48.5 -192.5t48.5 -192.5t143.5 -65.5q30 0 57.5 6.5t40.5 13.5l13 7q7 -3 9 -13q-46 -29 -121 -29q-101 0 -153.5 69.5t-52.5 203.5t51.5 203.5t151.5 69.5q32 0 59.5 -5.5t39.5 -10.5l12 -6q0 -10 -7 -13q-38 20 -100 20zM143 605 q-6 2 -8 10l127 101h13l125 -101q0 -8 -8 -10l-123 98z" />
<glyph unicode="&#x10a;" d="M350 831v-20q-5 -4 -14 -4l-14 4v20q6 4 14 4zM79 359q0 186 62.5 278.5t191.5 92.5q48 0 89.5 -8t58.5 -16l17 -7q0 -9 -6 -13q-59 29 -156 29q-117 0 -179.5 -81t-62.5 -275q0 -100 16.5 -170t49.5 -109.5t75.5 -57t100.5 -17.5q47 0 88.5 7.5t59.5 15.5l18 7 q7 -3 7 -12q-58 -33 -176 -33q-129 0 -191.5 90t-62.5 279z" />
<glyph unicode="&#x10b;" horiz-adv-x="446" d="M277 521q-95 0 -143.5 -65.5t-48.5 -192.5t48.5 -192.5t143.5 -65.5q30 0 57.5 6.5t40.5 13.5l13 7q7 -3 9 -13q-46 -29 -121 -29q-101 0 -153.5 69.5t-52.5 203.5t51.5 203.5t151.5 69.5q32 0 59.5 -5.5t39.5 -10.5l12 -6q0 -10 -7 -13q-38 20 -100 20zM275 703v-20 q-5 -4 -14 -4l-14 4v20q6 4 14 4z" />
<glyph unicode="&#x10c;" d="M330 775l-127 101q2 8 8 10l126 -98l123 98q8 -2 8 -10l-125 -101h-13zM79 359q0 186 62.5 278.5t191.5 92.5q48 0 89.5 -8t58.5 -16l17 -7q0 -9 -6 -13q-59 29 -156 29q-117 0 -179.5 -81t-62.5 -275q0 -100 16.5 -170t49.5 -109.5t75.5 -57t100.5 -17.5q47 0 88.5 7.5 t59.5 15.5l18 7q7 -3 7 -12q-58 -33 -176 -33q-129 0 -191.5 90t-62.5 279z" />
<glyph unicode="&#x10d;" horiz-adv-x="446" d="M277 521q-95 0 -143.5 -65.5t-48.5 -192.5t48.5 -192.5t143.5 -65.5q30 0 57.5 6.5t40.5 13.5l13 7q7 -3 9 -13q-46 -29 -121 -29q-101 0 -153.5 69.5t-52.5 203.5t51.5 203.5t151.5 69.5q32 0 59.5 -5.5t39.5 -10.5l12 -6q0 -10 -7 -13q-38 20 -100 20zM261 603 l-127 101q2 8 8 10l126 -98l123 98q8 -2 8 -10l-125 -101h-13z" />
<glyph unicode="&#x10e;" horiz-adv-x="657" d="M112 720h180q99 0 159 -30.5t93 -110.5t33 -219q0 -104 -18.5 -175t-56 -111.5t-88 -57t-122.5 -16.5h-180v720zM127 15h162q71 0 119.5 16t84.5 54.5t52.5 106t16.5 168.5q0 134 -30.5 210.5t-88 105.5t-154.5 29h-162v-690zM283 775l-127 101q2 8 8 10l126 -98l123 98 q8 -2 8 -10l-125 -101h-13z" />
<glyph unicode="&#x10f;" horiz-adv-x="565" d="M519 611q57 48 50 140q12 3 17 0q2 -39 -12 -80.5t-44 -64.5q-9 -2 -11 5zM263 536q138 0 181 -130v342q2 2 7 2l8 -2v-746q-2 -2 -8 -2l-7 2v121q-22 -61 -65.5 -97t-108.5 -36q-98 0 -148.5 69.5t-50.5 203.5t49 203.5t143 69.5zM444 340q-3 71 -50 126t-130 55 q-178 0 -178 -258t185 -258q81 0 127 61t46 134v140z" />
<glyph unicode="&#x110;" horiz-adv-x="663" d="M118 720h180q99 0 159 -30.5t93 -110.5t33 -219q0 -104 -18.5 -175t-56 -111.5t-88 -57t-122.5 -16.5h-180v352h-89q-3 8 0 15h89v353zM133 15h162q71 0 119.5 16t84.5 54.5t52.5 106t16.5 168.5q0 134 -30.5 210.5t-88 105.5t-154.5 29h-162v-338h183q3 -7 0 -15h-183 v-337z" />
<glyph unicode="&#x111;" horiz-adv-x="555" d="M459 653h75q3 -7 0 -15h-75v-636q-2 -2 -8 -2l-7 2v121q-22 -61 -65.5 -97t-108.5 -36q-98 0 -148.5 69.5t-50.5 203.5t49 203.5t143 69.5q62 0 109 -33t72 -96v231h-152q-3 8 0 15h152v95q2 2 7 2l8 -2v-95zM444 200v141q-2 69 -52.5 124.5t-127.5 55.5 q-178 0 -178 -258t185 -258q81 0 127 61t46 134z" />
<glyph unicode="&#x112;" d="M424 812h-255q-3 8 0 15h255q3 -7 0 -15zM112 720h379q3 -8 0 -15h-364v-332h314q3 -7 0 -15h-314v-343h374q3 -7 0 -15h-389v720z" />
<glyph unicode="&#x113;" horiz-adv-x="508" d="M434 259h-348q4 -133 47 -193.5t136 -60.5q39 0 74 11t51 22l15 11q9 -2 9 -11q-6 -5 -17 -13t-50.5 -21.5t-84.5 -13.5q-195 0 -195 276q0 136 54 203t146 67q84 0 129 -51t45 -128q0 -27 -2.5 -51.5t-5.5 -35.5zM430 360q0 68 -40 114.5t-119 46.5q-86 0 -134.5 -61.5 t-50.5 -185.5h337l6 53q1 16 1 33zM393 663h-235q-3 7 0 15h235q3 -7 0 -15z" />
<glyph unicode="&#x114;" d="M112 720h379q3 -8 0 -15h-364v-332h314q3 -7 0 -15h-314v-343h374q3 -7 0 -15h-389v720zM301 819q71 0 115 48q7 -4 9 -10q-5 -6 -14 -14.5t-41.5 -23t-68.5 -14.5t-67 13t-44 26l-13 13q3 8 9 9q47 -47 115 -47z" />
<glyph unicode="&#x115;" horiz-adv-x="508" d="M434 259h-348q4 -133 47 -193.5t136 -60.5q39 0 74 11t51 22l15 11q9 -2 9 -11q-6 -5 -17 -13t-50.5 -21.5t-84.5 -13.5q-195 0 -195 276q0 136 54 203t146 67q84 0 129 -51t45 -128q0 -27 -2.5 -51.5t-5.5 -35.5zM430 360q0 68 -40 114.5t-119 46.5q-86 0 -134.5 -61.5 t-50.5 -185.5h337l6 53q1 16 1 33zM270 656q71 0 115 48q7 -4 9 -10q-5 -6 -14 -14.5t-41.5 -23t-68.5 -14.5t-67 13t-44 26l-13 13q3 8 9 9q47 -47 115 -47z" />
<glyph unicode="&#x116;" d="M320 823v-20q-5 -4 -14 -4l-14 4v20q6 4 14 4zM112 720h379q3 -8 0 -15h-364v-332h314q3 -7 0 -15h-314v-343h374q3 -7 0 -15h-389v720z" />
<glyph unicode="&#x117;" horiz-adv-x="508" d="M290 695v-30q-5 -2 -17 -2l-17 2v30q6 2 17 2zM434 259h-348q4 -133 47 -193.5t136 -60.5q39 0 74 11t51 22l15 11q9 -2 9 -11q-6 -5 -17 -13t-50.5 -21.5t-84.5 -13.5q-195 0 -195 276q0 136 54 203t146 67q84 0 129 -51t45 -128q0 -27 -2.5 -51.5t-5.5 -35.5zM430 360 q0 68 -40 114.5t-119 46.5q-86 0 -134.5 -61.5t-50.5 -185.5h337l6 53q1 16 1 33z" />
<glyph unicode="&#x118;" d="M463 -164q12 0 23.5 3t17.5 6l5 3q5 -5 6 -11q-19 -15 -54 -15q-36 0 -56 16.5t-20 45.5q0 74 83 116h-356v720h379q3 -8 0 -15h-364v-332h314q3 -7 0 -15h-314v-343h374q3 -7 0 -15h-5q-42 -17 -69 -46.5t-27 -66.5q0 -51 63 -51z" />
<glyph unicode="&#x119;" horiz-adv-x="508" d="M271 536q84 0 129 -51t45 -128q0 -27 -2.5 -51.5t-5.5 -35.5l-3 -11h-348q4 -133 47 -193.5t136 -60.5q39 0 74 11t51 22l15 11q9 -2 9 -11q-27 -26 -82 -40q-92 -39 -92 -108q0 -51 63 -51q12 0 23.5 3t17.5 6l5 3q5 -5 6 -11q-19 -15 -54 -15q-36 0 -56 16.5t-20 45.5 q0 64 67 105q-18 -2 -30 -2q-195 0 -195 276q0 136 54 203t146 67zM86 274h337l6 53q1 16 1 33q0 68 -40 114.5t-119 46.5q-86 0 -134.5 -61.5t-50.5 -185.5z" />
<glyph unicode="&#x11a;" d="M112 720h379q3 -8 0 -15h-364v-332h314q3 -7 0 -15h-314v-343h374q3 -7 0 -15h-389v720zM287 773l-127 101q2 8 8 10l126 -98l123 98q8 -2 8 -10l-125 -101h-13z" />
<glyph unicode="&#x11b;" horiz-adv-x="509" d="M434 259h-348q4 -133 47 -193.5t136 -60.5q39 0 74 11t51 22l15 11q9 -2 9 -11q-6 -5 -17 -13t-50.5 -21.5t-84.5 -13.5q-195 0 -195 276q0 136 54 203t146 67q84 0 129 -51t45 -128q0 -27 -2.5 -51.5t-5.5 -35.5zM430 360q0 68 -40 114.5t-119 46.5q-86 0 -134.5 -61.5 t-50.5 -185.5h337l6 53q1 16 1 33zM263 602l-127 101q2 8 8 10l126 -98l123 98q8 -2 8 -10l-125 -101h-13z" />
<glyph unicode="&#x11c;" horiz-adv-x="615" d="M78 360q0 183 68 276.5t196 93.5q49 0 94 -8t65 -16l20 -7q0 -9 -6 -13q-76 29 -170 29q-252 0 -252 -355t252 -355q92 0 173 27v320h-209v15h223v-346q-74 -31 -190 -31q-264 0 -264 370zM224 776q-6 2 -8 10l127 101h13l125 -101q0 -8 -8 -10l-123 98z" />
<glyph unicode="&#x11d;" horiz-adv-x="513" d="M351 511l125 23q4 -7 2 -15l-110 -20q53 -45 53 -130q0 -78 -45.5 -122t-127.5 -44q-38 0 -71 11q-52 -48 -52 -99q0 -31 26 -48t65 -21t84 -10.5t84 -15.5t65 -37.5t26 -75.5q0 -66 -59.5 -111.5t-174.5 -45.5q-94 0 -141.5 42t-47.5 106q0 91 89 158q-31 20 -31 57 q0 56 53 106q-88 39 -88 150q0 79 45.5 123t127.5 44q61 0 103 -25zM248 218q74 0 116 40t42 111q0 72 -42 112t-116 40t-116 -40t-42 -112q0 -71 42 -111t116 -40zM240 -235q100 0 160 39t60 102q0 50 -35.5 77t-80 32.5t-103 13t-86.5 19.5q-88 -59 -88 -149q0 -62 46 -98 t127 -36zM124 602q-6 2 -8 10l127 101h13l125 -101q0 -8 -8 -10l-123 98z" />
<glyph unicode="&#x11e;" horiz-adv-x="615" d="M78 360q0 183 68 276.5t196 93.5q49 0 94 -8t65 -16l20 -7q0 -9 -6 -13q-76 29 -170 29q-252 0 -252 -355t252 -355q92 0 173 27v320h-209v15h223v-346q-74 -31 -190 -31q-264 0 -264 370zM347 811q71 0 115 48q7 -4 9 -10q-5 -6 -14 -14.5t-41.5 -23t-68.5 -14.5t-67 13 t-44 26l-13 13q3 8 9 9q47 -47 115 -47z" />
<glyph unicode="&#x11f;" horiz-adv-x="513" d="M351 511l125 23q4 -7 2 -15l-110 -20q53 -45 53 -130q0 -78 -45.5 -122t-127.5 -44q-38 0 -71 11q-52 -48 -52 -99q0 -31 26 -48t65 -21t84 -10.5t84 -15.5t65 -37.5t26 -75.5q0 -66 -59.5 -111.5t-174.5 -45.5q-94 0 -141.5 42t-47.5 106q0 91 89 158q-31 20 -31 57 q0 56 53 106q-88 39 -88 150q0 79 45.5 123t127.5 44q61 0 103 -25zM248 218q74 0 116 40t42 111q0 72 -42 112t-116 40t-116 -40t-42 -112q0 -71 42 -111t116 -40zM240 -235q100 0 160 39t60 102q0 50 -35.5 77t-80 32.5t-103 13t-86.5 19.5q-88 -59 -88 -149q0 -62 46 -98 t127 -36zM250 655q71 0 115 48q7 -4 9 -10q-5 -6 -14 -14.5t-41.5 -23t-68.5 -14.5t-67 13t-44 26l-13 13q3 8 9 9q47 -47 115 -47z" />
<glyph unicode="&#x120;" horiz-adv-x="615" d="M78 360q0 183 68 276.5t196 93.5q49 0 94 -8t65 -16l20 -7q0 -9 -6 -13q-76 29 -170 29q-252 0 -252 -355t252 -355q92 0 173 27v320h-209v15h223v-346q-74 -31 -190 -31q-264 0 -264 370zM360 820v-20q-5 -4 -14 -4l-14 4v20q6 4 14 4z" />
<glyph unicode="&#x121;" horiz-adv-x="513" d="M266 692v-28q-4 -1 -15 -1l-15 1v28q5 1 15 1zM351 511l125 23q4 -7 2 -15l-110 -20q53 -45 53 -130q0 -78 -45.5 -122t-127.5 -44q-38 0 -71 11q-52 -48 -52 -99q0 -31 26 -48t65 -21t84 -10.5t84 -15.5t65 -37.5t26 -75.5q0 -66 -59.5 -111.5t-174.5 -45.5 q-94 0 -141.5 42t-47.5 106q0 91 89 158q-31 20 -31 57q0 56 53 106q-88 39 -88 150q0 79 45.5 123t127.5 44q61 0 103 -25zM248 218q74 0 116 40t42 111q0 72 -42 112t-116 40t-116 -40t-42 -112q0 -71 42 -111t116 -40zM240 -235q100 0 160 39t60 102q0 50 -35.5 77 t-80 32.5t-103 13t-86.5 19.5q-88 -59 -88 -149q0 -62 46 -98t127 -36z" />
<glyph unicode="&#x122;" horiz-adv-x="615" d="M78 360q0 183 68 276.5t196 93.5q49 0 94 -8t65 -16l20 -7q0 -9 -6 -13q-76 29 -170 29q-252 0 -252 -355t252 -355q92 0 173 27v320h-209v15h223v-346q-74 -31 -190 -31q-264 0 -264 370zM328 -158l-8 6q24 36 24 68l-10 2v20q3 2 12 2l12 -2v-17q0 -20 -7.5 -39.5 t-14.5 -29.5z" />
<glyph unicode="&#x123;" horiz-adv-x="513" d="M272 710l10 -6q-27 -18 -28 -59l11 -2v-21q-4 -1 -14 -1l-12 1v19q0 20 8.5 37t16.5 24zM351 511l125 23q4 -7 2 -15l-110 -20q53 -45 53 -130q0 -78 -45.5 -122t-127.5 -44q-38 0 -71 11q-52 -48 -52 -99q0 -31 26 -48t65 -21t84 -10.5t84 -15.5t65 -37.5t26 -75.5 q0 -66 -59.5 -111.5t-174.5 -45.5q-94 0 -141.5 42t-47.5 106q0 91 89 158q-31 20 -31 57q0 56 53 106q-88 39 -88 150q0 79 45.5 123t127.5 44q61 0 103 -25zM248 218q74 0 116 40t42 111q0 72 -42 112t-116 40t-116 -40t-42 -112q0 -71 42 -111t116 -40zM240 -235 q100 0 160 39t60 102q0 50 -35.5 77t-80 32.5t-103 13t-86.5 19.5q-88 -59 -88 -149q0 -62 46 -98t127 -36z" />
<glyph unicode="&#x124;" horiz-adv-x="672" d="M545 377v341q3 2 7 2l8 -2v-716q-2 -2 -8 -2l-7 2v359h-418v-359q-2 -2 -7 -2l-8 2v716q3 2 8 2l7 -2v-341h418zM212 776q-6 2 -8 10l127 101h13l125 -101q0 -8 -8 -10l-123 98z" />
<glyph unicode="&#x125;" horiz-adv-x="550" d="M458 389v-387q-7 -5 -14 0v386q0 64 -37 99t-102 35q-137 0 -195 -150v-370q-7 -5 -14 0v746q7 5 14 0v-347q58 135 197 135q70 0 110.5 -39.5t40.5 -107.5zM-15 767q-6 2 -8 10l127 101h13l125 -101q0 -8 -8 -10l-123 98z" />
<glyph unicode="&#x126;" horiz-adv-x="673" d="M561 583h72q4 -11 0 -15h-72v-566q-2 -2 -8 -2l-7 2v360h-418v-360q-2 -2 -7 -2l-8 2v566h-75q-4 8 0 15h75v135q3 2 8 2l7 -2v-135h418v135q3 2 7 2l8 -2v-135zM128 377h418v191h-418v-191z" />
<glyph unicode="&#x127;" horiz-adv-x="550" d="M110 401q58 135 197 135q70 0 110.5 -39.5t40.5 -107.5v-387q-7 -5 -14 0v386q0 64 -37 99t-102 35q-137 0 -195 -150v-370q-7 -5 -14 0v637h-72q-3 7 0 14h72v95q4 2 7 2l7 -2v-95h160q5 -7 0 -14h-160v-238z" />
<glyph unicode="&#x128;" horiz-adv-x="239" d="M112 2v716q2 2 8 2l7 -2v-716q-2 -2 -8 -2zM173 791q33 0 46 33q8 -2 12 -7q0 -2 -1.5 -4.5t-6 -9.5t-10.5 -12.5t-17.5 -10t-24.5 -4.5q-23 0 -55 20t-50 20q-16 0 -27.5 -8.5t-14.5 -17.5l-4 -8q-9 1 -12 6q1 5 4 12t18.5 19t38.5 12q18 0 49.5 -20t54.5 -20z" />
<glyph unicode="&#x129;" horiz-adv-x="214" d="M114 524v-522q-1 -2 -7 -2l-7 2v522q1 2 7 2zM147 661q30 0 43 33q8 -2 12 -7q0 -2 -1 -4.5t-5 -9.5t-10 -12.5t-17 -10t-24 -4.5q-23 0 -48 20t-40 20q-16 0 -27 -8.5t-14 -17.5l-2 -8q-9 1 -12 6q1 5 3 12t16 19t37 12q18 0 43.5 -20t45.5 -20z" />
<glyph unicode="&#x12a;" horiz-adv-x="239" d="M112 2v716q2 2 8 2l7 -2v-716q-2 -2 -8 -2zM245 784h-252q-3 8 0 15h252q3 -7 0 -15z" />
<glyph unicode="&#x12b;" horiz-adv-x="214" d="M114 524v-522q-1 -2 -7 -2l-7 2v522q1 2 7 2zM198 676h-185q-3 8 0 15h185q3 -7 0 -15z" />
<glyph unicode="&#x12c;" horiz-adv-x="239" d="M119 808q71 0 115 48q7 -4 9 -10q-5 -6 -14 -14.5t-41.5 -23t-68.5 -14.5t-67 13t-44 26l-13 13q3 8 9 9q47 -47 115 -47zM112 2v716q2 2 8 2l7 -2l1 -716q-2 -2 -8 -2z" />
<glyph unicode="&#x12d;" horiz-adv-x="214" d="M114 524v-522q-1 -2 -7 -2l-7 2v522q1 2 7 2zM105 660q71 0 115 48q7 -4 9 -10q-5 -6 -14 -14.5t-41.5 -23t-68.5 -14.5t-67 13t-44 26l-13 13q3 8 9 9q47 -47 115 -47z" />
<glyph unicode="&#x12e;" horiz-adv-x="239" d="M110 -160q12 0 23.5 3t16.5 6l6 3q5 -5 6 -11q-19 -15 -54 -15q-36 0 -56 16.5t-20 45.5q0 75 80 118v712q2 2 8 2l7 -2l1 -716l-1 -1q-34 -18 -57 -48t-23 -62q0 -51 63 -51z" />
<glyph unicode="&#x12f;" horiz-adv-x="214" d="M123 694v-20q-5 -4 -14 -4l-14 4v20q6 4 14 4zM97 -159q12 0 23.5 3t17.5 6l5 3q5 -5 6 -11q-19 -15 -54 -15q-36 0 -56 16.5t-20 45.5q0 75 81 119v516q1 2 7 2l7 -2v-522q-36 -18 -58 -47t-22 -63q0 -51 63 -51z" />
<glyph unicode="&#x130;" horiz-adv-x="239" d="M112 718q2 2 8 2l7 -2v-716q-4 -2 -7 -2l-8 2v716zM134 822v-20q-5 -4 -14 -4l-14 4v20q6 4 14 4z" />
<glyph unicode="&#x131;" horiz-adv-x="214" d="M114 524v-522q-1 -2 -7 -2l-7 2v522q1 2 7 2z" />
<glyph unicode="&#x132;" horiz-adv-x="584" d="M112 2v716q2 2 8 2l7 -2l1 -716h-1q-1 -1 -2.5 -1.5t-4.5 -0.5zM461 145v573q1 2 8 2l7 -2v-573q0 -82 -30.5 -118.5t-106.5 -36.5q-32 0 -65.5 7.5t-51.5 14.5l-17 8q-1 10 6 14q54 -29 131 -29q63 0 91 30.5t28 109.5z" />
<glyph unicode="&#x133;" horiz-adv-x="437" d="M324 -92v616q1 2 6 2l7 -2v-612q0 -162 -127 -162q-19 0 -32 2t-17 4l-4 3v4l2 6q16 -4 47 -4q61 0 89.5 33.5t28.5 109.5zM114 524v-522q-1 -2 -7 -2l-7 2v522q1 2 7 2zM345 694v-20q-5 -4 -14 -4l-14 4v20q6 4 14 4zM121 694v-20q-5 -4 -14 -4l-14 4v20q6 4 14 4z" />
<glyph unicode="&#x134;" horiz-adv-x="413" d="M290 145v573q3 2 7 2l8 -2v-574q0 -82 -31 -118t-108 -36q-32 0 -65 7.5t-51 14.5l-17 8q-2 11 7 14q54 -29 129 -29q64 0 92.5 31t28.5 109zM162 776q-6 2 -8 10l127 101h13l125 -101q0 -8 -8 -10l-123 98z" />
<glyph unicode="&#x135;" horiz-adv-x="214" d="M100 -92v616q7 5 14 0v-615q0 -160 -122 -160q-38 0 -67 16q0 7 5 12q25 -14 62 -14q55 0 81.5 34.5t26.5 110.5zM-20 583q-6 2 -8 10l127 101h13l125 -101q0 -8 -8 -10l-123 98z" />
<glyph unicode="&#x136;" horiz-adv-x="606" d="M291 381l237 337q4 3 8.5 3t7.5 -1l2 -2l-242 -344l270 -372l-3 -1q-3 -1 -6 -1l-10 2l-263 364h-165v-364q-3 -2 -7 -2l-8 2v716q3 2 7 2l8 -2v-337h164zM300 -143l-8 6q24 30 24 62l-10 2v20q3 2 12 2l12 -2v-17q0 -20 -7.5 -38t-14.5 -26z" />
<glyph unicode="&#x137;" horiz-adv-x="492" d="M250 282l174 243q8 3 17 0l-179 -249l203 -273q-1 -3 -8 -3l-9 3l-197 265h-141v-267q-7 -3 -14 0v748q7 3 14 0v-467h140zM242 -145l-8 6q24 30 24 62l-10 2v20q3 2 12 2l12 -2v-17q0 -20 -7.5 -38t-14.5 -26z" />
<glyph unicode="&#x138;" horiz-adv-x="501" d="M241 296l229 -295q-9 -3 -18 0l-220 284l-122 -133v-150q-2 -2 -7 -2t-7 2v523q7 3 14 0v-353l319 352q4 2 10 2q8 0 10 -2z" />
<glyph unicode="&#x139;" horiz-adv-x="498" d="M112 0v718q3 2 8 2l7 -2v-703h340v-15h-355zM91 771l124 152q6 -1 11 -10l-125 -150q-7 1 -10 8z" />
<glyph unicode="&#x13a;" horiz-adv-x="218" d="M116 748v-746q-1 -2 -7 -2l-7 2v746q1 2 7 2zM46 793l134 143q6 -2 11 -11l-135 -141q-7 3 -10 9z" />
<glyph unicode="&#x13b;" horiz-adv-x="498" d="M112 0v718q3 2 8 2l7 -2v-703h340v-15h-355zM278 -138l-8 6q24 30 24 62l-10 2v20q3 2 12 2l12 -2v-17q0 -20 -7.5 -38t-14.5 -27z" />
<glyph unicode="&#x13c;" horiz-adv-x="218" d="M116 748v-746q-1 -2 -7 -2l-7 2v746q1 2 7 2zM91 -137l-8 6q24 30 24 62l-10 2v20q3 2 12 2l12 -2v-17q0 -20 -7.5 -38t-15.5 -26z" />
<glyph unicode="&#x13d;" horiz-adv-x="498" d="M302 576q-10 -2 -10 5q56 47 49 140q12 3 18 0q2 -40 -12.5 -81t-44.5 -64zM112 0v718q3 2 8 2l7 -2v-703h340v-15h-355z" />
<glyph unicode="&#x13e;" horiz-adv-x="222" d="M184 597q-6 2 -8 8q59 46 52 145q8 4 15 0q3 -43 -11 -86t-48 -67zM116 748v-746q-1 -2 -7 -2l-7 2v746q1 2 7 2z" />
<glyph unicode="&#x13f;" horiz-adv-x="498" d="M112 0v718q3 2 8 2l7 -2v-703h340v-15h-355zM318 344v-20q-5 -4 -14 -4l-14 4v20q6 4 14 4z" />
<glyph unicode="&#x140;" horiz-adv-x="238" d="M116 748v-746q-1 -2 -7 -2l-7 2v746q1 2 7 2zM244 344v-20q-5 -4 -14 -4l-14 4v20q6 4 14 4z" />
<glyph unicode="&#x141;" horiz-adv-x="500" d="M129 15h340v-15h-355v353l-71 -42q-7 4 -7 13l78 46v348q3 2 8 2l7 -2v-340l109 64q6 -3 7 -12l-116 -68v-347z" />
<glyph unicode="&#x142;" horiz-adv-x="285" d="M243 459l-99 -57v-400q-1 -2 -7 -2l-7 2v392l-84 -49q-7 3 -7 12l91 53v338q1 2 7 2l7 -2v-330l92 53q7 -3 7 -12z" />
<glyph unicode="&#x143;" horiz-adv-x="688" d="M315 769l124 152q6 -1 11 -10l-125 -150q-7 1 -10 8zM561 2l-436 693l2 -116v-577q-4 -2 -8 -2l-7 2v716q3 2 8 2l7 -2l389 -616l48 -78q-3 41 -3 107v587q2 2 8 2l7 -2v-716q-3 -2 -7 -2z" />
<glyph unicode="&#x144;" horiz-adv-x="550" d="M458 389v-387q-7 -5 -14 0v386q0 64 -37 99t-102 35q-134 0 -195 -150v-370q-7 -5 -14 0v522q7 5 14 0v-121q64 133 197 133q70 0 110.5 -39.5t40.5 -107.5zM212 617l124 152q6 -1 11 -10l-125 -150q-7 1 -10 8z" />
<glyph unicode="&#x145;" horiz-adv-x="688" d="M327 -149l-8 6q24 30 24 62l-10 2v20q3 2 12 2l12 -2v-17q0 -20 -7.5 -38t-15.5 -26zM561 2l-436 693l2 -116v-577q-4 -2 -8 -2l-7 2v716q3 2 8 2l7 -2l389 -616l48 -78q-3 41 -3 107v587q2 2 8 2l7 -2v-716q-3 -2 -7 -2z" />
<glyph unicode="&#x146;" horiz-adv-x="550" d="M458 389v-387q-7 -5 -14 0v386q0 64 -37 99t-102 35q-134 0 -195 -150v-370q-7 -5 -14 0v522q7 5 14 0v-121q64 133 197 133q70 0 110.5 -39.5t40.5 -107.5zM261 -148l-8 6q24 30 24 62l-10 2v20q3 2 12 2l12 -2v-17q0 -20 -7.5 -38t-15.5 -27z" />
<glyph unicode="&#x147;" horiz-adv-x="688" d="M561 2l-436 693l2 -116v-577q-4 -2 -8 -2l-7 2v716q3 2 8 2l7 -2l389 -616l48 -78q-3 41 -3 107v587q2 2 8 2l7 -2v-716q-3 -2 -7 -2zM344 772l-127 101q2 8 8 10l126 -98l123 98q8 -2 8 -10l-125 -101h-13z" />
<glyph unicode="&#x148;" horiz-adv-x="550" d="M458 389v-387q-7 -5 -14 0v386q0 64 -37 99t-102 35q-134 0 -195 -150v-370q-7 -5 -14 0v522q7 5 14 0v-121q64 133 197 133q70 0 110.5 -39.5t40.5 -107.5zM276 611l-120 95q2 8 8 10l119 -92l114 91q8 -2 8 -10l-116 -94h-13z" />
<glyph unicode="&#x149;" horiz-adv-x="550" d="M91 595q-7 2 -7 9q68 47 71 132q7 1 14 -2q-4 -92 -78 -139zM458 389v-387q-7 -5 -14 0v386q0 64 -37 99t-102 35q-134 0 -195 -150v-370q-7 -5 -14 0v522q7 5 14 0v-121q64 133 197 133q70 0 110.5 -39.5t40.5 -107.5z" />
<glyph unicode="&#x14a;" horiz-adv-x="688" d="M561 718q2 2 8 2l7 -2v-778q0 -72 -18.5 -110t-79.5 -58q-7 3 -4 13q49 17 68 50t19 103v64l-436 693l2 -116v-577q-4 -2 -8 -2l-7 2v716q3 2 8 2l7 -2l389 -616l48 -78q-3 41 -3 107v587z" />
<glyph unicode="&#x14b;" horiz-adv-x="550" d="M110 403q64 133 197 133q70 0 110.5 -39.5t40.5 -107.5v-449q0 -71 -18.5 -109.5t-80.5 -58.5q-6 4 -4 14q52 16 70.5 49.5t18.5 102.5v450q0 64 -37 99t-102 35q-134 0 -195 -150v-370q-7 -5 -14 0v522q7 5 14 0v-121z" />
<glyph unicode="&#x14c;" horiz-adv-x="678" d="M213 827h249q3 -7 0 -15h-249q-3 8 0 15zM79 360q0 370 260 370t260 -370t-260 -370t-260 370zM584 360q0 183 -64 269t-181 86q-245 0 -245 -355t245 -355q117 0 181 86t64 269z" />
<glyph unicode="&#x14d;" horiz-adv-x="538" d="M71 263q0 144 50.5 208.5t147.5 64.5t147.5 -64.5t50.5 -208.5t-50.5 -208.5t-147.5 -64.5t-147.5 64.5t-50.5 208.5zM453 263q0 140 -47 199.5t-137 59.5t-137 -59.5t-47 -199.5t47 -199.5t137 -59.5t137 59.5t47 199.5zM385 659h-225q-3 7 0 15h225q3 -7 0 -15z" />
<glyph unicode="&#x14e;" horiz-adv-x="678" d="M79 360q0 370 260 370t260 -370t-260 -370t-260 370zM584 360q0 183 -64 269t-181 86q-245 0 -245 -355t245 -355q117 0 181 86t64 269zM340 806q71 0 115 48q7 -4 9 -10q-5 -6 -14 -14.5t-41.5 -23t-68.5 -14.5t-67 13t-44 26l-13 13q3 8 9 9q47 -47 115 -47z" />
<glyph unicode="&#x14f;" horiz-adv-x="538" d="M71 263q0 144 50.5 208.5t147.5 64.5t147.5 -64.5t50.5 -208.5t-50.5 -208.5t-147.5 -64.5t-147.5 64.5t-50.5 208.5zM453 263q0 140 -47 199.5t-137 59.5t-137 -59.5t-47 -199.5t47 -199.5t137 -59.5t137 59.5t47 199.5zM267 666q71 0 115 48q7 -4 9 -10 q-5 -6 -14 -14.5t-41.5 -23t-68.5 -14.5t-67 13t-44 26l-13 13q3 8 9 9q47 -47 115 -47z" />
<glyph unicode="&#x150;" horiz-adv-x="678" d="M257 787l88 122q14 -1 20 -11l-95 -118q-13 0 -13 7zM383 787l89 122q12 -1 21 -11l-97 -118q-11 0 -13 7zM79 360q0 370 260 370t260 -370t-260 -370t-260 370zM584 360q0 183 -64 269t-181 86q-245 0 -245 -355t245 -355q117 0 181 86t64 269z" />
<glyph unicode="&#x151;" horiz-adv-x="538" d="M190 625l92 111q10 -1 19 -10l-99 -108q-9 1 -12 7zM306 625l92 111q12 -1 19 -10l-99 -108q-9 1 -12 7zM71 263q0 144 50.5 208.5t147.5 64.5t147.5 -64.5t50.5 -208.5t-50.5 -208.5t-147.5 -64.5t-147.5 64.5t-50.5 208.5zM453 263q0 140 -47 199.5t-137 59.5 t-137 -59.5t-47 -199.5t47 -199.5t137 -59.5t137 59.5t47 199.5z" />
<glyph unicode="&#x152;" horiz-adv-x="812" d="M78 360q0 188 73 279t204 91q27 0 84 -10h306q4 -8 0 -15h-301v-332h261q4 -7 0 -15h-261v-343h311q3 -9 0 -15h-317q-34 -10 -83 -10q-131 0 -204 90.5t-73 279.5zM429 707q-30 8 -74 8q-122 0 -192 -86.5t-70 -268.5t70 -268.5t192 -86.5q43 0 74 9v693z" />
<glyph unicode="&#x153;" horiz-adv-x="837" d="M611 536q80 0 121 -50.5t41 -128.5q0 -27 -2.5 -51.5t-5.5 -35.5l-3 -11h-316q3 -254 168 -254q33 0 63.5 11t44.5 22l14 11q11 -3 11 -12q-5 -5 -14.5 -13t-45 -21t-77.5 -13q-144 0 -172 171q-18 -91 -61.5 -131t-117.5 -40q-94 0 -141 64t-47 209q0 144 47.5 208.5 t142.5 64.5q76 0 119.5 -41.5t57.5 -132.5q16 88 61 131t112 43zM85 263q0 -140 44 -199t130 -59q84 0 126.5 61t42.5 199q0 141 -41 199t-126 58q-86 0 -131 -59.5t-45 -199.5zM446 274h304q1 1 1 3.5t1 5.5t1.5 7.5t1 9.5t1.5 11.5t1 13.5t0.5 15.5t0.5 17.5 q0 69 -36.5 116.5t-110.5 47.5q-76 0 -119.5 -62t-45.5 -186z" />
<glyph unicode="&#x154;" horiz-adv-x="612" d="M112 720h235q87 0 136 -52.5t49 -140.5q0 -78 -40 -128.5t-112 -62.5l172 -334q-5 -2 -9 -2l-8 2l-170 332h-238v-332q-2 -2 -8 -2l-7 2v718zM127 705v-356h222q76 0 122 47.5t46 130.5t-46 130.5t-122 47.5h-222zM235 768l124 152q6 -1 11 -10l-125 -150q-7 1 -10 8z " />
<glyph unicode="&#x155;" horiz-adv-x="385" d="M110 401q53 134 162 134q49 0 82 -21q-2 -9 -10 -12q-32 19 -77 19q-101 0 -157 -152v-368q-7 -3 -14 0v524q7 3 14 0v-124zM160 619l124 152q6 -1 11 -10l-125 -150q-7 1 -10 8z" />
<glyph unicode="&#x156;" horiz-adv-x="612" d="M112 720h235q87 0 136 -52.5t49 -140.5q0 -78 -40 -128.5t-112 -62.5l172 -334q-5 -2 -9 -2l-8 2l-170 332h-238v-332q-2 -2 -8 -2l-7 2v718zM127 705v-356h222q76 0 122 47.5t46 130.5t-46 130.5t-122 47.5h-222zM306 -138l-8 6q24 30 24 62l-10 2v20q3 2 12 2l12 -2 v-17q0 -20 -7.5 -38t-14.5 -27z" />
<glyph unicode="&#x157;" horiz-adv-x="385" d="M87 -138l-8 6q24 30 24 62l-10 2v20q3 2 12 2l12 -2v-17q0 -20 -7.5 -38t-15.5 -27zM110 401q53 134 162 134q49 0 82 -21q-2 -9 -10 -12q-32 19 -77 19q-101 0 -157 -152v-368q-7 -3 -14 0v524q7 3 14 0v-124z" />
<glyph unicode="&#x158;" horiz-adv-x="612" d="M112 720h235q87 0 136 -52.5t49 -140.5q0 -78 -40 -128.5t-112 -62.5l172 -334q-5 -2 -9 -2l-8 2l-170 332h-238v-332q-2 -2 -8 -2l-7 2v718zM127 705v-356h222q76 0 122 47.5t46 130.5t-46 130.5t-122 47.5h-222zM279 774l-127 101q2 8 8 10l126 -98l123 98q8 -2 8 -10 l-125 -101h-13z" />
<glyph unicode="&#x159;" horiz-adv-x="385" d="M110 401q53 134 162 134q49 0 82 -21q-2 -9 -10 -12q-32 19 -77 19q-101 0 -157 -152v-368q-7 -3 -14 0v524q7 3 14 0v-124zM219 601l-118 94q2 8 8 10l117 -91l116 92q8 -2 8 -10l-118 -95h-13z" />
<glyph unicode="&#x15a;" d="M72 545q0 86 58 135.5t162 49.5q47 0 91 -6t64 -12l20 -5q0 -9 -5 -14q-79 23 -169 23q-101 0 -153.5 -46.5t-52.5 -124.5q0 -43 13.5 -73t43.5 -49.5t59 -29.5t79 -23q38 -9 61.5 -16.5t55.5 -23t50 -34t31 -49t13 -69.5q0 -88 -61 -138t-167 -50q-52 0 -100 9t-71 18 l-22 9q0 8 6 14q80 -35 182 -35t160 45t58 128q0 36 -11.5 63.5t-27.5 44.5t-45.5 31.5t-51.5 21t-61 16.5q-40 10 -64 17.5t-55 22.5t-48 33.5t-29.5 48t-12.5 68.5zM243 781l124 150q6 -1 11 -10l-125 -148q-7 1 -10 8z" />
<glyph unicode="&#x15b;" horiz-adv-x="443" d="M67 396q0 140 169 140q30 0 60.5 -5t45.5 -11l16 -5q2 -10 -6 -14q-52 21 -115 21q-156 0 -156 -126q0 -16 5 -30.5t11 -24.5t18.5 -19.5t20.5 -15t24 -12t22 -8.5t22.5 -6.5t17.5 -4.5q32 -9 47.5 -14t41.5 -17.5t39 -26t23.5 -36.5t10.5 -52q0 -66 -43.5 -102.5 t-126.5 -36.5q-40 0 -77 7.5t-53 14.5l-17 8q-1 2 1 7t5 6q58 -29 139 -29q72 0 115 30.5t43 94.5q0 32 -10 54t-37.5 37.5t-41 20.5t-54.5 17l-9 3q-34 9 -55.5 17.5t-46 24t-37 39t-12.5 54.5zM168 616l124 152q6 -1 11 -10l-125 -150q-7 1 -10 8z" />
<glyph unicode="&#x15c;" d="M72 545q0 86 58 135.5t162 49.5q47 0 91 -6t64 -12l20 -5q0 -9 -5 -14q-79 23 -169 23q-101 0 -153.5 -46.5t-52.5 -124.5q0 -43 13.5 -73t43.5 -49.5t59 -29.5t79 -23q38 -9 61.5 -16.5t55.5 -23t50 -34t31 -49t13 -69.5q0 -88 -61 -138t-167 -50q-52 0 -100 9t-71 18 l-22 9q0 8 6 14q80 -35 182 -35t160 45t58 128q0 36 -11.5 63.5t-27.5 44.5t-45.5 31.5t-51.5 21t-61 16.5q-40 10 -64 17.5t-55 22.5t-48 33.5t-29.5 48t-12.5 68.5zM167 779q-6 2 -8 10l127 101h13l125 -101q0 -8 -8 -10l-123 98z" />
<glyph unicode="&#x15d;" horiz-adv-x="443" d="M67 396q0 140 169 140q30 0 60.5 -5t45.5 -11l16 -5q2 -10 -6 -14q-52 21 -115 21q-156 0 -156 -126q0 -16 5 -30.5t11 -24.5t18.5 -19.5t20.5 -15t24 -12t22 -8.5t22.5 -6.5t17.5 -4.5q32 -9 47.5 -14t41.5 -17.5t39 -26t23.5 -36.5t10.5 -52q0 -66 -43.5 -102.5 t-126.5 -36.5q-40 0 -77 7.5t-53 14.5l-17 8q-1 2 1 7t5 6q58 -29 139 -29q72 0 115 30.5t43 94.5q0 32 -10 54t-37.5 37.5t-41 20.5t-54.5 17l-9 3q-34 9 -55.5 17.5t-46 24t-37 39t-12.5 54.5zM113 611q-6 2 -8 10l118 94h13l116 -94q0 -8 -8 -10l-114 91z" />
<glyph unicode="&#x15e;" d="M282 370q38 -9 61.5 -16.5t55.5 -23t50 -34t31 -49t13 -69.5q0 -85 -58.5 -135.5t-159.5 -52.5l-7 -50q56 1 84 -20.5t28 -57.5q0 -94 -106 -94q-48 0 -88 27q1 6 8 11q38 -24 81 -24q91 0 91 80q0 32 -23.5 49t-63.5 17h-20l-5 6l9 56q-52 0 -99.5 9t-69.5 18l-22 9 q0 8 6 14q80 -35 182 -35t160 45t58 128q0 36 -11.5 63.5t-27.5 44.5t-45.5 31.5t-51.5 21t-61 16.5q-40 10 -64 17.5t-55 22.5t-48 33.5t-29.5 48t-12.5 68.5q0 86 58 135.5t162 49.5q47 0 91 -6t64 -12l20 -5q0 -9 -5 -14q-79 23 -169 23q-101 0 -153.5 -46.5 t-52.5 -124.5q0 -43 13.5 -73t43.5 -49.5t59 -29.5t79 -23z" />
<glyph unicode="&#x15f;" horiz-adv-x="443" d="M222 275q32 -9 47.5 -14t41.5 -17.5t39 -26t23.5 -36.5t10.5 -52q0 -63 -39.5 -99t-115.5 -40l-12 -55q55 1 82.5 -20t27.5 -59q0 -94 -108 -94q-48 0 -88 27q1 6 8 11q38 -24 81 -24q93 0 93 80q0 66 -86 66h-20l-5 6l15 62h-3q-40 0 -77 7.5t-53 14.5l-17 8q-1 2 1 7 t5 6q58 -29 139 -29q72 0 115 30.5t43 94.5q0 32 -10 54t-37.5 37.5t-41 20.5t-54.5 17l-9 3q-34 9 -55.5 17.5t-46 24t-37 39t-12.5 54.5q0 140 169 140q30 0 60.5 -5t45.5 -11l16 -5q2 -10 -6 -14q-52 21 -115 21q-156 0 -156 -126q0 -16 5 -30.5t11 -24.5t18.5 -19.5 t20.5 -15t24 -12t22 -8.5t22.5 -6.5t17.5 -4.5z" />
<glyph unicode="&#x160;" d="M72 545q0 86 58 135.5t162 49.5q47 0 91 -6t64 -12l20 -5q0 -9 -5 -14q-79 23 -169 23q-101 0 -153.5 -46.5t-52.5 -124.5q0 -43 13.5 -73t43.5 -49.5t59 -29.5t79 -23q38 -9 61.5 -16.5t55.5 -23t50 -34t31 -49t13 -69.5q0 -88 -61 -138t-167 -50q-52 0 -100 9t-71 18 l-22 9q0 8 6 14q80 -35 182 -35t160 45t58 128q0 36 -11.5 63.5t-27.5 44.5t-45.5 31.5t-51.5 21t-61 16.5q-40 10 -64 17.5t-55 22.5t-48 33.5t-29.5 48t-12.5 68.5zM288 786l-127 101q2 8 8 10l126 -98l123 98q8 -2 8 -10l-125 -101h-13z" />
<glyph unicode="&#x161;" horiz-adv-x="443" d="M67 396q0 140 169 140q30 0 60.5 -5t45.5 -11l16 -5q2 -10 -6 -14q-52 21 -115 21q-156 0 -156 -126q0 -16 5 -30.5t11 -24.5t18.5 -19.5t20.5 -15t24 -12t22 -8.5t22.5 -6.5t17.5 -4.5q32 -9 47.5 -14t41.5 -17.5t39 -26t23.5 -36.5t10.5 -52q0 -66 -43.5 -102.5 t-126.5 -36.5q-40 0 -77 7.5t-53 14.5l-17 8q-1 2 1 7t5 6q58 -29 139 -29q72 0 115 30.5t43 94.5q0 32 -10 54t-37.5 37.5t-41 20.5t-54.5 17l-9 3q-34 9 -55.5 17.5t-46 24t-37 39t-12.5 54.5zM226 608l-117 93q2 8 8 10l116 -90l113 90q8 -2 8 -10l-115 -93h-13z" />
<glyph unicode="&#x162;" horiz-adv-x="525" d="M251 -171l-8 6q24 30 24 62l-10 2v20q3 2 12 2l12 -2v-17q0 -20 -7.5 -38t-15.5 -26zM37 720h451q2 0 2 -7l-2 -8h-215v-703q-2 -2 -8 -2l-7 2v703h-221q-2 3 -2 8z" />
<glyph unicode="&#x163;" horiz-adv-x="340" d="M198 -171l-8 6q24 30 24 62l-10 2v20q3 2 12 2l12 -2v-17q0 -20 -7.5 -38t-14.5 -26zM314 10q4 -5 2 -12q-26 -8 -66 -8q-75 0 -103.5 43.5t-28.5 133.5v345h-81q-2 3 -2 7l2 7h81v105q4 6 14 6v-111h170q2 -2 2 -7l-2 -7h-170v-345q0 -85 25 -124t93 -39q17 0 33 1.5 t23 2.5z" />
<glyph unicode="&#x164;" horiz-adv-x="525" d="M37 720h451q2 0 2 -7l-2 -8h-215v-703q-2 -2 -8 -2l-7 2v703h-221q-2 3 -2 8zM260 774l-127 101q2 8 8 10l126 -98l123 98q8 -2 8 -10l-125 -101h-13z" />
<glyph unicode="&#x165;" horiz-adv-x="340" d="M333 729q2 -38 -13 -77t-45 -59q-8 -1 -10 5q55 44 52 132q12 3 16 -1zM314 10q4 -5 2 -12q-26 -8 -66 -8q-75 0 -103.5 43.5t-28.5 133.5v345h-81q-2 3 -2 7l2 7h81v105q4 6 14 6v-111h170q2 -2 2 -7l-2 -7h-170v-345q0 -85 25 -124t93 -39q17 0 33 1.5t23 2.5z" />
<glyph unicode="&#x166;" horiz-adv-x="534" d="M277 352h129q3 -8 0 -15h-129v-335q-2 -2 -8 -2l-8 2v335h-128q-3 7 0 15h128v353h-220q-2 3 -2 8l2 7h451q2 0 2 -7l-2 -8h-215v-353z" />
<glyph unicode="&#x167;" horiz-adv-x="344" d="M253 4q17 0 33 1.5t24 2.5l7 2q4 -5 2 -12q-26 -8 -66 -8q-75 0 -103.5 43.5t-28.5 133.5v112h-67q-1 7 0 14h67v219h-81q-2 3 -2 7l2 7h81v105q4 6 14 6v-111h170q2 -2 2 -7l-2 -7h-170v-219h135q1 -7 0 -14h-135v-112q0 -85 25 -124t93 -39z" />
<glyph unicode="&#x168;" horiz-adv-x="662" d="M556 718v-502q0 -106 -60 -166t-166 -60t-165 59.5t-59 166.5v502q3 2 8 2l7 -2v-503q0 -99 55.5 -154.5t154.5 -55.5t154.5 55.5t55.5 154.5v503q3 2 6 2zM388 814q33 0 46 33q8 -2 12 -7q0 -2 -1.5 -4.5t-6 -9.5t-10.5 -12.5t-17.5 -10t-24.5 -4.5q-23 0 -55 20t-50 20 q-16 0 -27.5 -8.5t-15.5 -16.5l-3 -9q-9 1 -12 6q1 5 4 12t18.5 19t38.5 12q18 0 49.5 -20t54.5 -20z" />
<glyph unicode="&#x169;" horiz-adv-x="550" d="M92 143v381q7 5 14 0v-380q0 -65 37.5 -102.5t101.5 -37.5q134 0 195 150v370q7 5 14 0v-522q-7 -5 -14 0v121q-64 -133 -197 -133q-69 0 -110 42t-41 111zM331 674q33 0 46 33q8 -2 12 -7q0 -2 -1.5 -4.5t-6 -9.5t-10.5 -12.5t-17.5 -10t-24.5 -4.5q-23 0 -55 20t-50 20 q-16 0 -27.5 -8.5t-14.5 -16.5l-4 -9q-9 1 -12 6q1 5 4 12t18.5 19t38.5 12q18 0 49.5 -20t54.5 -20z" />
<glyph unicode="&#x16a;" horiz-adv-x="662" d="M556 718v-502q0 -106 -60 -166t-166 -60t-165 59.5t-59 166.5v502q3 2 8 2l7 -2v-503q0 -99 55.5 -154.5t154.5 -55.5t154.5 55.5t55.5 154.5v503q3 2 6 2zM453 821h-245q-3 7 0 15h245q3 -7 0 -15z" />
<glyph unicode="&#x16b;" horiz-adv-x="550" d="M92 143v381q7 5 14 0v-380q0 -65 37.5 -102.5t101.5 -37.5q134 0 195 150v370q7 5 14 0v-522q-7 -5 -14 0v121q-64 -133 -197 -133q-69 0 -110 42t-41 111zM382 669h-214q-3 7 0 15h214q3 -7 0 -15z" />
<glyph unicode="&#x16c;" horiz-adv-x="662" d="M556 718v-502q0 -106 -60 -166t-166 -60t-165 59.5t-59 166.5v502q3 2 8 2l7 -2v-503q0 -99 55.5 -154.5t154.5 -55.5t154.5 55.5t55.5 154.5v503q3 2 6 2zM324 806q71 0 115 48q7 -4 9 -10q-5 -6 -14 -14.5t-41.5 -23t-68.5 -14.5t-67 13t-44 26l-13 13q3 8 9 9 q47 -47 115 -47z" />
<glyph unicode="&#x16d;" horiz-adv-x="550" d="M92 143v381q7 5 14 0v-380q0 -65 37.5 -102.5t101.5 -37.5q134 0 195 150v370q7 5 14 0v-522q-7 -5 -14 0v121q-64 -133 -197 -133q-69 0 -110 42t-41 111zM273 662q71 0 115 48q7 -4 9 -10q-5 -6 -14 -14.5t-41.5 -23t-68.5 -14.5t-67 13t-44 26l-13 13q3 8 9 9 q47 -47 115 -47z" />
<glyph unicode="&#x16e;" horiz-adv-x="662" d="M556 718v-502q0 -106 -60 -166t-166 -60t-165 59.5t-59 166.5v502q3 2 8 2l7 -2v-503q0 -99 55.5 -154.5t154.5 -55.5t154.5 55.5t55.5 154.5v503q3 2 6 2zM328 775q-46 0 -74.5 26t-28.5 73q0 46 30.5 71.5t73.5 25.5q42 0 73.5 -25.5t31.5 -71.5t-30.5 -72.5 t-75.5 -26.5zM419 874q0 35 -24 59t-67 24q-42 0 -65 -24.5t-23 -58.5q0 -35 23 -60.5t65 -25.5q43 0 67 26t24 60z" />
<glyph unicode="&#x16f;" horiz-adv-x="550" d="M92 143v381q7 5 14 0v-380q0 -65 37.5 -102.5t101.5 -37.5q134 0 195 150v370q7 5 14 0v-522q-7 -5 -14 0v121q-64 -133 -197 -133q-69 0 -110 42t-41 111zM272 604q-43 0 -70.5 25t-27.5 69q0 43 29.5 67.5t69.5 24.5q41 0 70.5 -24t29.5 -68t-29 -69t-72 -25zM359 698 q0 33 -23 56t-64 23q-40 0 -62 -23t-22 -56q0 -34 22 -58t62 -24q41 0 64 24.5t23 57.5z" />
<glyph unicode="&#x170;" horiz-adv-x="662" d="M352 895l-94 -113q-9 0 -11 8l85 114q12 -1 20 -9zM468 895l-94 -113q-9 0 -11 8l85 114q12 -1 20 -9zM556 718v-502q0 -106 -60 -166t-166 -60t-165 59.5t-59 166.5v502q3 2 8 2l7 -2v-503q0 -99 55.5 -154.5t154.5 -55.5t154.5 55.5t55.5 154.5v503q3 2 6 2z" />
<glyph unicode="&#x171;" horiz-adv-x="550" d="M294 737l-95 -114q-9 1 -12 8l89 114q8 -1 18 -8zM405 737l-95 -114q-10 2 -12 8l88 114q11 -1 19 -8zM92 143v381q7 5 14 0v-380q0 -65 37.5 -102.5t101.5 -37.5q134 0 195 150v370q7 5 14 0v-522q-7 -5 -14 0v121q-64 -133 -197 -133q-69 0 -110 42t-41 111z" />
<glyph unicode="&#x172;" horiz-adv-x="662" d="M541 718q3 2 6 2l9 -2v-502q0 -83 -37 -138.5t-105 -75.5q-38 -17 -63 -48t-25 -66q0 -51 63 -51q12 0 23.5 3t17.5 6l5 3q5 -5 6 -11q-19 -15 -54 -15q-36 0 -56 16.5t-20 45.5q0 66 67 109q-28 -4 -48 -4q-106 0 -165 59.5t-59 166.5v502q3 2 8 2l7 -2v-503 q0 -99 55.5 -154.5t154.5 -55.5t154.5 55.5t55.5 154.5v503z" />
<glyph unicode="&#x173;" horiz-adv-x="550" d="M420 -162q12 0 23.5 3t16.5 6l6 3q5 -5 6 -11q-19 -15 -54 -15q-36 0 -56 16.5t-20 45.5q0 42 27.5 75t70.5 51v111q-64 -133 -197 -133q-69 0 -110 42t-41 111v381q7 5 14 0v-380q0 -65 37.5 -102.5t101.5 -37.5q134 0 195 150v370q7 5 14 0v-518q-41 -17 -69 -48.5 t-28 -68.5q0 -51 63 -51z" />
<glyph unicode="&#x174;" horiz-adv-x="938" d="M347 778q-6 2 -8 10l127 101h13l125 -101q0 -8 -8 -10l-123 98zM684 -4l-192 618l-18 71h-1q-3 -21 -19 -71l-193 -618q-1 -2 -3 0l-224 722q2 2 8 2l8 -2l188 -609l22 -77h1q5 25 21 77l188 609q1 2 3 2l3 -2l188 -609l21 -79h1q5 29 19 79l176 609q0 2 9 2l7 -2 l-210 -722q-1 -2 -3 0z" />
<glyph unicode="&#x175;" horiz-adv-x="789" d="M733 524q3 2 7 2l8 -2l-179 -527h-1l-137 387l-36 111l-37 -111l-137 -387h-1l-179 527q2 2 8 2l7 -2l143 -421l22 -72l23 72l148 421h5l148 -421l23 -72l22 72zM268 602q-6 2 -8 10l127 101h13l125 -101q0 -8 -8 -10l-123 98z" />
<glyph unicode="&#x176;" horiz-adv-x="609" d="M183 780q-6 2 -8 10l127 101h13l125 -101q0 -8 -8 -10l-123 98zM565 718q2 2 9 2l9 -2l-272 -412v-304q-3 -2 -8 -2l-7 2v303l-264 413q3 2 10 2l8 -2l253 -396z" />
<glyph unicode="&#x177;" horiz-adv-x="517" d="M479 524l-251 -665q-23 -61 -44 -85t-57 -24l-43 5q-3 7 1 14q14 -5 41 -5q32 0 49.5 22t40.5 83l49 130h-1l-228 525q2 2 8 2l8 -2l220 -507h1l190 507q2 2 8 2zM130 601q-6 2 -8 10l127 101h13l125 -101q0 -8 -8 -10l-123 98z" />
<glyph unicode="&#x178;" horiz-adv-x="609" d="M565 718q2 2 9 2l9 -2l-272 -412v-304q-3 -2 -8 -2l-7 2v303l-264 413q3 2 10 2l8 -2l253 -396zM250 837v-20q-5 -4 -14 -4l-14 4v20q6 4 14 4zM384 837v-20q-5 -4 -14 -4l-14 4v20q6 4 14 4z" />
<glyph unicode="&#x179;" horiz-adv-x="568" d="M72 720h433q3 -8 0 -16l-443 -689h456q2 -9 2 -8l-2 -9v2h-473q-3 8 0 16l443 689h-416q1 -2 0 -2q-2 0 -2 8q0 3 2 9zM250 785l124 152q6 -1 11 -10l-125 -150q-7 1 -10 8z" />
<glyph unicode="&#x17a;" horiz-adv-x="441" d="M61 14h327q3 -7 0 -14h-343q-3 8 0 15l322 497h-297q-3 7 0 14h313q3 -8 0 -15zM190 620l124 152q6 -1 11 -10l-125 -150q-7 1 -10 8z" />
<glyph unicode="&#x17b;" horiz-adv-x="568" d="M280 831q5 1 15 1l15 -1v-28q-4 -1 -15 -1l-15 1v28zM72 720h433q3 -8 0 -16l-443 -689h456q2 -9 2 -8l-2 -9v2h-473q-3 8 0 16l443 689h-416q1 -2 0 -2q-2 0 -2 8q0 3 2 9z" />
<glyph unicode="&#x17c;" horiz-adv-x="441" d="M61 14h327q3 -7 0 -14h-343q-3 8 0 15l322 497h-297q-3 7 0 14h313q3 -8 0 -15zM247 701v-20q-5 -4 -14 -4l-14 4v20q6 4 14 4z" />
<glyph unicode="&#x17d;" horiz-adv-x="568" d="M72 720h433q3 -8 0 -16l-443 -689h456q2 -9 2 -8l-2 -9v2h-473q-3 8 0 16l443 689h-416q1 -2 0 -2q-2 0 -2 8q0 3 2 9zM288 774l-127 101q2 8 8 10l126 -98l123 98q8 -2 8 -10l-125 -101h-13z" />
<glyph unicode="&#x17e;" horiz-adv-x="441" d="M61 14h327q3 -7 0 -14h-343q-3 8 0 15l322 497h-297q-3 7 0 14h313q3 -8 0 -15zM223 600l-116 92q2 8 8 10l115 -89l111 88q8 -2 8 -10l-113 -91h-13z" />
<glyph unicode="&#x17f;" horiz-adv-x="250" d="M118 590q0 86 32.5 123t107.5 37q20 0 40.5 -2.5t31.5 -5.5l11 -2q2 -8 -3 -13q-34 8 -76 8q-72 0 -100.5 -33t-28.5 -111v-589q-4 -2 -7.5 -2t-5.5 1l-2 1v509h-79q-2 4 -2 7.5t1 5.5l1 2h79v64z" />
<glyph unicode="&#x1fa;" horiz-adv-x="637" d="M331 694l281 -693q-3 -2 -8 -2l-9 2l-91 227h-371l-91 -227q-3 -2 -9 -2l-8 2l279 693q-38 4 -61 27.5t-23 64.5q0 43 29.5 67.5t69.5 24.5q41 0 70.5 -24t29.5 -68q0 -40 -24.5 -64t-63.5 -28zM318 865q-40 0 -62 -23t-22 -56t22 -57t62 -24q41 0 64 24t23 57t-23 56 t-64 23zM139 243h359l-180 445zM278 918l135 88q3 -2 8 -13l-136 -86q-7 4 -7 11z" />
<glyph unicode="&#x1fb;" horiz-adv-x="511" d="M98 509q78 27 160 27q84 0 122.5 -39.5t38.5 -129.5v-366q-7 -3 -14 0l1 133q-17 -64 -71.5 -104t-121.5 -40q-155 0 -155 147q0 151 182 151q79 0 165 -11v90q0 82 -33.5 118.5t-115.5 36.5q-37 0 -75 -7t-57 -13l-20 -7q-6 3 -6 14zM405 265q-63 10 -161 10 q-88 0 -130 -33.5t-42 -104.5q0 -133 136 -133q85 0 141 55t56 150v56zM255 578q-44 0 -71 24.5t-27 68.5q0 43 29 66.5t70 23.5t70.5 -23t29.5 -67t-29 -68.5t-72 -24.5zM342 671q0 33 -22.5 55t-64.5 22q-40 0 -62 -22.5t-22 -54.5q0 -33 22 -56.5t62 -23.5q41 0 64 23.5 t23 56.5zM204 793l118 98q5 -1 9 -11l-119 -96q-6 2 -8 9z" />
<glyph unicode="&#x1fc;" horiz-adv-x="840" d="M473 15h312q3 -7 0 -15h-327v212h-295l-127 -211q-3 -2 -9 -2q-7 0 -9 2l433 719h324q3 -7 0 -15h-302v-334h252q3 -7 0 -15h-252v-341zM172 227h286v476zM505 770l126 146q6 -1 11 -10l-127 -144q-7 1 -10 8z" />
<glyph unicode="&#x1fd;" horiz-adv-x="784" d="M402 408q43 128 162 128q78 0 117.5 -50.5t39.5 -128.5q0 -23 -2.5 -45t-5.5 -32l-3 -11h-311q8 -264 164 -264q36 0 66.5 10.5t42.5 21.5l12 11q8 -3 11 -11q-5 -5 -14.5 -13t-44 -21t-74.5 -13q-58 0 -101 36t-62 110q-1 3 -2.5 16t-1.5 16q0 -3 -1.5 -15.5t-2.5 -15.5 q-42 -147 -193 -147q-63 0 -101.5 39.5t-38.5 107.5q0 147 170 147h156v80q0 85 -34.5 121t-104.5 36q-35 0 -70 -6.5t-53 -12.5l-18 -7q-10 5 -6 14q67 27 149 27q133 0 150 -128v-22q1 2 3 10.5t2 11.5zM706 360q0 69 -35 115t-107 46t-117.5 -58.5t-47.5 -178.5h300 q7 31 7 76zM384 269h-152q-83 0 -121 -32.5t-38 -99.5q0 -64 33.5 -98t91.5 -34q82 0 134 53t52 152v59zM347 619l124 152q6 -1 11 -10l-125 -150q-7 1 -10 8z" />
<glyph unicode="&#x1fe;" horiz-adv-x="678" d="M565 750l-50 -90q84 -92 84 -300q0 -370 -260 -370q-102 0 -164 58l-49 -89q-7 0 -12 7l51 92q-86 92 -86 302q0 370 260 370q105 0 166 -60l48 86q7 -2 12 -6zM339 715q-245 0 -245 -355q0 -200 79 -288l324 583q-60 60 -158 60zM183 62q60 -57 156 -57q117 0 181 86 t64 269q0 197 -77 285zM298 771l124 152q6 -1 11 -10l-125 -150q-7 1 -10 8z" />
<glyph unicode="&#x1ff;" horiz-adv-x="538" d="M442 556l-38 -70q63 -65 63 -223q0 -144 -50.5 -208.5t-147.5 -64.5q-73 0 -117 34l-34 -63q-8 0 -12 6l36 65q-71 65 -71 231q0 144 50.5 208.5t147.5 64.5q79 0 125 -40l36 66q8 0 12 -6zM269 522q-90 0 -137 -59.5t-47 -199.5q0 -157 64 -218l238 438q-42 39 -118 39z M159 36q40 -32 110 -32q90 0 137 59.5t47 199.5q0 149 -56 210zM208 618l124 152q6 -1 11 -10l-125 -150q-7 1 -10 8z" />
<glyph unicode="&#x218;" d="M72 545q0 86 58 135.5t162 49.5q47 0 91 -6t64 -12l20 -5q0 -9 -5 -14q-79 23 -169 23q-101 0 -153.5 -46.5t-52.5 -124.5q0 -43 13.5 -73t43.5 -49.5t59 -29.5t79 -23q38 -9 61.5 -16.5t55.5 -23t50 -34t31 -49t13 -69.5q0 -88 -61 -138t-167 -50q-52 0 -100 9t-71 18 l-22 9q0 8 6 14q80 -35 182 -35t160 45t58 128q0 36 -11.5 63.5t-27.5 44.5t-45.5 31.5t-51.5 21t-61 16.5q-40 10 -64 17.5t-55 22.5t-48 33.5t-29.5 48t-12.5 68.5zM264 -171l-8 6q24 30 24 62l-10 2v20q3 2 12 2l12 -2v-17q0 -20 -7.5 -38t-14.5 -26z" />
<glyph unicode="&#x219;" horiz-adv-x="443" d="M67 396q0 140 169 140q30 0 60.5 -5t45.5 -11l16 -5q2 -10 -6 -14q-52 21 -115 21q-156 0 -156 -126q0 -16 5 -30.5t11 -24.5t18.5 -19.5t20.5 -15t24 -12t22 -8.5t22.5 -6.5t17.5 -4.5q32 -9 47.5 -14t41.5 -17.5t39 -26t23.5 -36.5t10.5 -52q0 -66 -43.5 -102.5 t-126.5 -36.5q-40 0 -77 7.5t-53 14.5l-17 8q-1 2 1 7t5 6q58 -29 139 -29q72 0 115 30.5t43 94.5q0 32 -10 54t-37.5 37.5t-41 20.5t-54.5 17l-9 3q-34 9 -55.5 17.5t-46 24t-37 39t-12.5 54.5zM202 -187l-8 6q24 30 24 62l-10 2v20q3 2 12 2l12 -2v-17q0 -20 -7.5 -38 t-14.5 -26z" />
<glyph unicode="&#x237;" horiz-adv-x="214" d="M100 -92v616q7 5 14 0v-615q0 -160 -122 -160q-38 0 -67 16q0 7 5 12q25 -14 62 -14q55 0 81.5 34.5t26.5 110.5z" />
<glyph unicode="&#x2c6;" horiz-adv-x="396" d="M72 562q-6 2 -8 10l127 101h13l125 -101q0 -8 -8 -10l-123 98z" />
<glyph unicode="&#x2c7;" horiz-adv-x="404" d="M192 550l-127 101q2 8 8 10l126 -98l123 98q8 -2 8 -10l-125 -101h-13z" />
<glyph unicode="&#x2d8;" horiz-adv-x="324" d="M160 650q71 0 115 48q7 -4 9 -10q-5 -6 -14 -14.5t-41.5 -23t-68.5 -14.5t-67 13t-44 26l-13 13q3 8 9 9q47 -47 115 -47z" />
<glyph unicode="&#x2d9;" horiz-adv-x="176" d="M101 630v-20q-5 -4 -14 -4l-14 4v20q6 4 14 4z" />
<glyph unicode="&#x2da;" horiz-adv-x="344" d="M170 516q-46 0 -74.5 26t-28.5 73q0 46 30.5 71.5t73.5 25.5q42 0 73.5 -25.5t31.5 -71.5t-30.5 -72.5t-75.5 -26.5zM261 615q0 35 -24 59t-67 24q-42 0 -65 -24.5t-23 -58.5q0 -35 23 -60.5t65 -25.5q43 0 67 26t24 60z" />
<glyph unicode="&#x2db;" horiz-adv-x="283" d="M180 -178q5 -5 6 -11q-19 -15 -54 -15q-36 0 -56 16.5t-20 45.5q0 45 31.5 79.5t79.5 52.5v-12q-41 -17 -68.5 -48.5t-27.5 -68.5q0 -51 63 -51q12 0 23.5 3t16.5 6z" />
<glyph unicode="&#x2dc;" horiz-adv-x="327" d="M231 632q33 0 46 33q8 -2 12 -7q0 -2 -1.5 -4.5t-6 -9.5t-10.5 -12.5t-17.5 -10t-24.5 -4.5q-23 0 -55 20t-50 20q-16 0 -27.5 -8.5t-14.5 -16.5l-4 -9q-9 1 -12 6q1 5 4 12t18.5 19t38.5 12q18 0 49.5 -20t54.5 -20z" />
<glyph unicode="&#x2dd;" horiz-adv-x="386" d="M38 653l124 152q6 -1 11 -10l-125 -150q-7 1 -10 8zM185 653l124 152q6 -1 11 -10l-125 -150q-7 1 -10 8z" />
<glyph unicode="&#x3c0;" horiz-adv-x="594" d="M161 526h388q2 -4 2 -8q0 -5 -2 -7l-75 1v-276q0 -81 10 -138.5t20 -73.5l9 -17q-2 -7 -13 -7h-1q-4 7 -10.5 21.5t-17.5 75t-11 139.5v276h-331v-510q0 -2 -6 -2l-7 2v511q-19 0 -37 -2.5t-27 -4.5l-8 -2q-6 6 0 14q27 8 117 8z" />
<glyph unicode="&#x401;" d="M112 720h379q3 -8 0 -15h-364v-332h314q3 -7 0 -15h-314v-343h374q3 -7 0 -15h-389v720zM251 841v-20q-5 -4 -14 -4l-14 4v20q6 4 14 4zM385 841v-20q-5 -4 -14 -4l-14 4v20q6 4 14 4z" />
<glyph unicode="&#x410;" horiz-adv-x="637" d="M320 723l292 -722q-3 -2 -8 -2l-9 2l-91 227h-371l-91 -227q-3 -2 -9 -2l-8 2l291 722q2 2 4 0zM139 243h359l-180 446z" />
<glyph unicode="&#x411;" horiz-adv-x="605" d="M112 720h360q2 -3 2 -8l-2 -7h-345v-314h224q90 0 142.5 -52.5t52.5 -141.5q0 -90 -52 -143.5t-141 -53.5h-241v720zM127 376v-361h226q83 0 130.5 50t47.5 132q0 81 -48 130t-132 49h-224z" />
<glyph unicode="&#x412;" horiz-adv-x="625" d="M528 537q0 -45 -13 -79.5t-34.5 -53t-41.5 -28t-41 -12.5q23 -1 46 -9.5t49 -27t42 -55.5t16 -87q0 -89 -49.5 -137t-163.5 -48h-226v720h222q194 0 194 -183zM127 370h207q179 0 179 167q0 80 -42 124t-141 44h-203v-335zM127 15h215q105 0 149.5 43.5t44.5 126.5 q0 171 -195 171h-214v-341z" />
<glyph unicode="&#x413;" horiz-adv-x="489" d="M112 720h346q2 -3 2 -8l-2 -7h-331v-703q-3 -2 -7 -2l-8 2v718z" />
<glyph unicode="&#x414;" horiz-adv-x="662" d="M533 15h78v-153q-7 -3 -15 0v138h-559v-138q-7 -3 -15 0v153h65q23 34 37.5 70t23 89.5t11.5 84t9 108.5l27 353h338v-705zM209 705l-26 -343q-10 -129 -26 -210.5t-53 -136.5h414v690h-309z" />
<glyph unicode="&#x415;" d="M112 720h379q3 -8 0 -15h-364v-332h314q3 -7 0 -15h-314v-343h374q3 -7 0 -15h-389v720z" />
<glyph unicode="&#x416;" horiz-adv-x="939" d="M645 374l262 -372l-3 -1q-3 -1 -6 -1l-10 2l-255 364h-156v-364q-3 -2 -7 -2l-8 2v364h-156l-255 -364q-3 -2 -10 -2q-3 0 -6 1l-3 1l262 372l-234 344q8 6 18 0l229 -337h155v337q3 2 8 2l7 -2v-337h155l229 337q4 3 8.5 3t6.5 -1l3 -2z" />
<glyph unicode="&#x417;" horiz-adv-x="542" d="M446 550q0 -46 -14 -81t-38 -55t-46 -30.5t-47 -15.5q28 -4 53 -14.5t52.5 -30.5t44 -57.5t16.5 -87.5q0 -82 -56.5 -135t-183.5 -53q-46 0 -90 7t-65 14l-22 7q0 9 6 15q90 -28 171 -28q121 0 173 48.5t52 124.5q0 182 -232 182h-45q-4 9 0 16h45q210 0 210 174 q0 74 -47.5 119.5t-145.5 45.5q-42 0 -84 -7.5t-63 -15.5l-21 -8q-9 5 -7 15q74 31 175 31q102 0 155.5 -50t53.5 -130z" />
<glyph unicode="&#x418;" horiz-adv-x="682" d="M553 718q3 2 9 2l8 -2v-716q-2 -2 -8 -2l-7 2v691l-427 -691q-2 -2 -8 -2l-8 2v716q3 2 8 2l7 -2v-689z" />
<glyph unicode="&#x419;" horiz-adv-x="682" d="M352 833q29 0 58.5 10.5t45.5 20.5l15 10q9 -3 9 -11q-6 -5 -16.5 -12.5t-43.5 -20t-68 -12.5q-34 0 -66.5 11t-47.5 23l-16 11q2 7 10 10q55 -40 120 -40zM553 718q3 2 9 2l8 -2v-716q-2 -2 -8 -2l-7 2v691l-427 -691q-2 -2 -8 -2l-8 2v716q3 2 8 2l7 -2v-689z" />
<glyph unicode="&#x41a;" horiz-adv-x="606" d="M291 381l237 337q4 3 8.5 3t7.5 -1l2 -2l-242 -344l270 -372l-3 -1q-3 -1 -6 -1l-10 2l-263 364h-165v-364q-3 -2 -7 -2l-8 2v716q3 2 7 2l8 -2v-337h164z" />
<glyph unicode="&#x41b;" horiz-adv-x="645" d="M54 -4q-22 0 -31 4q-3 7 0 14q16 -5 31 -3q24 2 38 11t31 44t29 115t22 212l25 327h334v-718q-3 -2 -8 -2q-6 0 -7 2v703h-305l-24 -314q-11 -136 -23.5 -218t-31 -119t-34.5 -46.5t-46 -11.5z" />
<glyph unicode="&#x41c;" horiz-adv-x="860" d="M430 228l296 490q11 5 22 0v-716q-2 -2 -8 -2l-7 2v647l1 56l-293 -488q-11 -5 -22 0l-293 488l1 -56v-647q-1 -2 -7 -2l-8 2v716q11 5 22 0z" />
<glyph unicode="&#x41d;" horiz-adv-x="672" d="M545 377v341q3 2 7 2l8 -2v-716q-2 -2 -8 -2l-7 2v360h-418v-360q-2 -2 -7 -2l-8 2v716q3 2 8 2l7 -2v-341h418z" />
<glyph unicode="&#x41e;" horiz-adv-x="678" d="M79 360q0 370 260 370t260 -370t-260 -370t-260 370zM584 360q0 183 -64 269t-181 86q-245 0 -245 -355t245 -355q117 0 181 86t64 269z" />
<glyph unicode="&#x41f;" horiz-adv-x="660" d="M548 720v-718q-3 -2 -7 -2l-8 2v703h-406v-703q-2 -2 -7 -2l-8 2v718h436z" />
<glyph unicode="&#x420;" horiz-adv-x="596" d="M127 317v-315q-2 -2 -8 -2l-7 2v718h241q87 0 135.5 -53.5t48.5 -148.5t-48.5 -148t-135.5 -53h-226zM127 332h227q79 0 123.5 49t44.5 136q0 89 -44.5 138.5t-123.5 49.5h-227v-373z" />
<glyph unicode="&#x421;" d="M79 359q0 186 62.5 278.5t191.5 92.5q48 0 89.5 -8t58.5 -16l17 -7q0 -9 -6 -13q-59 29 -156 29q-117 0 -179.5 -81t-62.5 -275q0 -100 16.5 -170t49.5 -109.5t75.5 -57t100.5 -17.5q47 0 88.5 7.5t59.5 15.5l18 7q7 -3 7 -12q-58 -33 -176 -33q-129 0 -191.5 90 t-62.5 279z" />
<glyph unicode="&#x422;" horiz-adv-x="525" d="M37 720h451q2 0 2 -7l-2 -8h-215v-703q-2 -2 -8 -2l-7 2v703h-221q-2 3 -2 8z" />
<glyph unicode="&#x423;" horiz-adv-x="607" d="M559 718q0 2 8 2l9 -2l-208 -525q-48 -122 -84 -157.5t-98 -35.5l-49 5q-2 8 2 15q25 -5 47 -5q46 0 76.5 20t60.5 88h-5l-288 595q1 2 8 2l9 -2l264 -549l15 -33h2q3 7 8 18.5t8 17.5z" />
<glyph unicode="&#x424;" horiz-adv-x="786" d="M384 643v83q3 2 8 2l7 -2v-83q56 0 102 -7t88.5 -25.5t71.5 -48t46 -77t17 -109.5q0 -77 -25 -131.5t-72 -83.5t-102 -41t-126 -12v-106q-3 -2 -7 -2l-8 2v106q-56 0 -101.5 7t-88 25.5t-70.5 48.5t-45 77.5t-17 109.5t17 109.5t45 77t70.5 48t88 25.5t101.5 7zM384 123 v505q-148 0 -227.5 -56t-79.5 -196q0 -73 22 -123.5t64.5 -78.5t96 -39.5t124.5 -11.5zM399 628v-505q148 0 229 56.5t81 196.5q0 73 -22.5 123.5t-66 78t-96.5 39t-125 11.5z" />
<glyph unicode="&#x425;" horiz-adv-x="569" d="M290 366l238 -365q-3 -1 -9 -1l-9 2l-229 350l-219 -350q-3 -2 -11 -2q-3 0 -7 2l229 364l-229 352q2 2 9 2l9 -2l220 -339l222 339q11 5 19 0z" />
<glyph unicode="&#x426;" horiz-adv-x="689" d="M112 0v718q4 2 8 2l7 -2v-703h418v703q3 2 7 2l8 -2v-703h77v-153q-2 -2 -7 -2q-6 0 -8 2v138h-510z" />
<glyph unicode="&#x427;" horiz-adv-x="627" d="M500 377v341q3 2 7 2l8 -2v-716q-3 -2 -8 -2l-7 2v356q-30 -15 -101 -29q-60 -12 -118 -12q-103 0 -157.5 50.5t-54.5 176.5v174q4 2 8 2l7 -2v-173q0 -119 47 -166t157 -47q117 0 207 42z" />
<glyph unicode="&#x428;" horiz-adv-x="957" d="M112 0v718q2 2 8 2l7 -2v-703h344v703q0 2 7 2q8 0 8 -2v-703h344v703q2 2 7 2l8 -2v-718h-733z" />
<glyph unicode="&#x429;" horiz-adv-x="974" d="M112 0v718q2 2 8 2l7 -2v-703h344v703q3 2 7 2l8 -2v-703h344v703q3 2 7 2l8 -2v-703h77v-153q-6 -2 -7 -2q-4 0 -8 2v138h-795z" />
<glyph unicode="&#x42a;" horiz-adv-x="678" d="M200 390h225q89 0 141.5 -52t52.5 -141q0 -90 -52.5 -143.5t-141.5 -53.5h-240v705h-154q-2 2 -2 7l2 8h169v-330zM200 375v-360h225q84 0 131 49.5t47 131.5t-47 130.5t-131 48.5h-225z" />
<glyph unicode="&#x42b;" horiz-adv-x="848" d="M112 718q4 2 7 2l8 -2v-328h225q89 0 141.5 -52t52.5 -141q0 -90 -52.5 -143.5t-141.5 -53.5h-240v718zM721 718q2 2 8 2l7 -2v-716q-1 -2 -7 -2l-8 2v716zM127 375v-360h225q84 0 131 49.5t47 131.5t-47 130.5t-131 48.5h-225z" />
<glyph unicode="&#x42c;" horiz-adv-x="605" d="M127 390h225q89 0 141.5 -52t52.5 -141q0 -90 -52.5 -143.5t-141.5 -53.5h-240v718q4 2 7 2l8 -2v-328zM127 15h225q84 0 131 49.5t47 131.5t-47 130.5t-131 48.5h-225v-360z" />
<glyph unicode="&#x42d;" horiz-adv-x="578" d="M61 699q63 31 175 31q264 0 264 -370q0 -189 -65.5 -279.5t-198.5 -90.5q-55 0 -101.5 8t-65.5 16l-19 9q1 7 6 13q69 -31 179 -31q122 0 186 79.5t63 273.5h-304q-2 3 -2 8l2 8h304q-3 185 -67.5 263t-182.5 78q-45 0 -86.5 -7.5t-60.5 -14.5l-19 -7q-6 4 -7 13z" />
<glyph unicode="&#x42e;" horiz-adv-x="943" d="M343 368q3 362 261 362q260 0 260 -370t-260 -370t-261 363h-216v-351q-3 -2 -8 -2l-7 2v716q3 2 8 2l7 -2v-350h216zM360 360q0 -355 244 -355t244 355t-244 355t-244 -355z" />
<glyph unicode="&#x42f;" horiz-adv-x="615" d="M268 720h235v-718q-2 -2 -7 -2l-8 2v327h-237l-171 -327q-5 -2 -11 -2l-7 2l172 327q-74 11 -115 63t-41 132q0 90 50 143t140 53zM488 344v361h-226q-78 0 -123.5 -48.5t-45.5 -132.5q0 -83 46 -131.5t123 -48.5h226z" />
<glyph unicode="&#x430;" horiz-adv-x="511" d="M98 509q78 27 160 27q84 0 122.5 -39.5t38.5 -129.5v-366q-7 -3 -14 0l1 133q-17 -64 -71.5 -104t-121.5 -40q-76 0 -115.5 38.5t-39.5 108.5q0 69 47 110t135 41q79 0 165 -11v90q0 82 -33.5 118.5t-115.5 36.5q-37 0 -75 -7t-57 -13l-20 -7q-6 3 -6 14zM405 265 q-70 11 -161 11q-82 0 -127 -36.5t-45 -102.5q0 -63 35 -98t101 -35q85 0 141 55t56 150v56z" />
<glyph unicode="&#x431;" horiz-adv-x="570" d="M86 377q0 50 4 89.5t14.5 70.5t21.5 53t33.5 39.5t41 28.5t54 21t62.5 16t75 15q55 10 63 47q11 2 15 -4q-5 -16 -11 -24.5t-22.5 -18t-43.5 -14.5q-131 -27 -169 -44q-74 -32 -101 -108q-19 -54 -22 -145l-1 -59q32 174 202 174q97 0 147 -66.5t50 -195.5 q0 -262 -203 -262q-99 0 -153 66.5t-54 194.5q0 14 -1.5 60.5t-1.5 65.5zM300 499q-195 0 -195 -247q0 -122 48.5 -184.5t142.5 -62.5q188 0 188 247t-184 247z" />
<glyph unicode="&#x432;" horiz-adv-x="513" d="M425 394q0 -100 -94 -124q55 -8 84.5 -44.5t29.5 -90.5q0 -135 -153 -135h-196v526h184q68 0 106.5 -33.5t38.5 -98.5zM110 512v-237h172q61 0 95 31t34 87q0 119 -129 119h-172zM110 14h187q134 0 134 121q0 57 -34.5 91.5t-99.5 34.5h-187v-247z" />
<glyph unicode="&#x433;" horiz-adv-x="393" d="M96 526h264q1 -2 1 -7l-1 -7h-250v-510q-3 -2 -6.5 -2t-5.5 1l-2 1v524z" />
<glyph unicode="&#x434;" horiz-adv-x="555" d="M29 14h51q20 37 32 93t22 181l19 238h292v-512h63v-140q-7 -3 -14 0v126h-451v-126q-7 -3 -14 0v140zM166 512l-18 -228q-16 -200 -52 -270h335v498h-265z" />
<glyph unicode="&#x435;" horiz-adv-x="508" d="M434 259h-348q4 -133 47 -193.5t136 -60.5q39 0 74 11t51 22l15 11q9 -2 9 -11q-6 -5 -17 -13t-50.5 -21.5t-84.5 -13.5q-195 0 -195 276q0 136 54 203t146 67q84 0 129 -51t45 -128q0 -27 -2.5 -51.5t-5.5 -35.5zM430 360q0 68 -40 114.5t-119 46.5q-86 0 -134.5 -61.5 t-50.5 -185.5h337l6 53q1 16 1 33z" />
<glyph unicode="&#x436;" horiz-adv-x="756" d="M533 276l192 -273q-1 -3 -8 -3l-9 3l-187 265h-136v-266q0 -2 -7 -2l-7 2v266h-136l-187 -265q-1 -3 -9 -3l-8 3l192 273l-168 249q9 3 17 0l164 -243h135v242q0 2 7 2l7 -2v-242h135l164 243q8 3 17 0z" />
<glyph unicode="&#x437;" horiz-adv-x="451" d="M368 395q0 -104 -107 -127q60 -11 90.5 -46.5t30.5 -83.5q0 -69 -43 -108.5t-153 -39.5q-40 0 -74.5 6t-49.5 12l-14 7q0 9 6 13q52 -24 132 -24q97 0 139.5 34t42.5 100q0 60 -46.5 91.5t-128.5 31.5h-48q-2 3 -2 7l2 7h48q161 0 161 120q0 127 -151 127q-34 0 -67.5 -5 t-49.5 -11l-16 -5q-10 4 -4 13q51 22 136 22q86 0 126 -38t40 -103z" />
<glyph unicode="&#x438;" horiz-adv-x="578" d="M110 16l352 508q0 2 10 2t10 -2v-522q-1 -2 -7 -2l-7 2v506l-351 -506q-1 -3 -10 -3l-11 3v522q0 2 8 2l6 -2v-508z" />
<glyph unicode="&#x439;" horiz-adv-x="578" d="M413 688q-4 -6 -13 -14t-39.5 -22t-65.5 -14t-64.5 12.5t-41.5 25.5l-12 12q2 8 9 9q9 -13 39 -29t70 -16q69 0 109 45q9 0 9 -9zM110 16l352 508q0 2 10 2t10 -2v-522q-1 -2 -7 -2l-7 2v506l-351 -506q-1 -3 -10 -3l-11 3v522q0 2 8 2l6 -2v-508z" />
<glyph unicode="&#x43a;" horiz-adv-x="495" d="M250 282l174 243q8 3 17 0l-179 -249l203 -273q-1 -3 -8 -3l-9 3l-197 265h-141v-267q-7 -3 -14 0v525q7 4 14 0v-244h140z" />
<glyph unicode="&#x43b;" horiz-adv-x="549" d="M161 290q-8 -100 -19.5 -163t-27.5 -90t-30 -35t-36 -8l-21 3q-1 3 -1 6t1 5l1 2q10 -3 21 -3q45 0 65 63t33 224l18 232h288v-524q-3 -3 -6.5 -3t-5.5 1l-2 2v510h-261z" />
<glyph unicode="&#x43c;" horiz-adv-x="675" d="M563 524q2 2 8 2l8 -2v-522q-1 -2 -8 -2l-6 2v499l-228 -364q-2 -1 -7 -1l-7 1l-213 362v-497q0 -2 -6 -2l-8 2v522q0 2 6 2l9 -2l219 -373z" />
<glyph unicode="&#x43d;" horiz-adv-x="560" d="M110 265v-263q0 -2 -7 -2l-7 2v522q1 2 7 2q7 0 7 -2v-245h340v245q0 2 7 2t7 -2v-522q0 -2 -6 -2l-8 2v263h-340z" />
<glyph unicode="&#x43e;" horiz-adv-x="538" d="M71 263q0 144 50.5 208.5t147.5 64.5t147.5 -64.5t50.5 -208.5t-50.5 -208.5t-147.5 -64.5t-147.5 64.5t-50.5 208.5zM453 263q0 140 -47 199.5t-137 59.5t-137 -59.5t-47 -199.5t47 -199.5t137 -59.5t137 59.5t47 199.5z" />
<glyph unicode="&#x43f;" horiz-adv-x="549" d="M110 512v-510l-4 -2h-3l-7 2v524h357v-524l-2 -2h-3q-9 0 -9 2v510h-329z" />
<glyph unicode="&#x440;" horiz-adv-x="555" d="M292 -10q-58 0 -107 34t-74 94v-367q-2 -2 -7 -2l-8 2v773q2 2 8 2l7 -2v-121q21 59 67.5 96t106.5 37q199 0 199 -273t-192 -273zM111 184q2 -68 54 -123.5t126 -55.5q178 0 178 258t-185 258q-76 0 -124.5 -61.5t-48.5 -133.5v-142z" />
<glyph unicode="&#x441;" horiz-adv-x="446" d="M277 521q-95 0 -143.5 -65.5t-48.5 -192.5t48.5 -192.5t143.5 -65.5q30 0 57.5 6.5t40.5 13.5l13 7q7 -3 9 -13q-46 -29 -121 -29q-101 0 -153.5 69.5t-52.5 203.5t51.5 203.5t151.5 69.5q32 0 59.5 -5.5t39.5 -10.5l12 -6q0 -10 -7 -13q-38 20 -100 20z" />
<glyph unicode="&#x442;" horiz-adv-x="422" d="M35 526h352q3 -1 3 -7l-3 -7h-169v-510q-1 -2 -7 -2l-7 2v510h-169q-3 1 -3 7z" />
<glyph unicode="&#x443;" horiz-adv-x="517" d="M479 524l-250 -664q-20 -55 -43 -82.5t-59 -27.5l-43 5l-2 7q0 5 3 8q14 -6 41 -6q30 0 50 24t41 81l49 132h-3l-227 523q2 2 8 2l9 -2l219 -510l191 510q1 2 9 2z" />
<glyph unicode="&#x444;" horiz-adv-x="775" d="M394 507q59 29 135 29q89 0 131.5 -66.5t42.5 -206.5t-42.5 -206.5t-131.5 -66.5q-79 0 -134 30v-268q-1 -2 -7 -2l-7 2v268q-55 -30 -135 -30q-89 0 -131.5 66.5t-42.5 206.5t42.5 206.5t131.5 66.5q76 0 134 -29v241q2 2 8 2l6 -2v-241zM86 263q0 -134 39 -196.5 t121 -62.5q76 0 135 31l-1 457q-56 30 -134 30q-82 0 -121 -62.5t-39 -196.5zM395 35q58 -31 134 -31q82 0 121 62.5t39 196.5t-39 196.5t-121 62.5q-79 0 -135 -30z" />
<glyph unicode="&#x445;" horiz-adv-x="475" d="M246 268l190 -266q-7 -5 -18 0l-180 253l-181 -253q-5 -2 -9.5 -2t-6.5 1l-2 1l190 266l-188 256q4 2 8.5 2t6.5 -1l3 -1l179 -243l178 243q9 5 18 0z" />
<glyph unicode="&#x446;" horiz-adv-x="566" d="M442 524q0 2 8 2l6 -2v-510h63v-140q-7 -3 -14 0v126h-409v524q0 2 7 2l7 -2v-510h332v510z" />
<glyph unicode="&#x447;" horiz-adv-x="518" d="M422 524v-522q-1 -2 -6 -2l-8 2v258q-72 -48 -176 -48q-168 0 -168 155v157q0 2 7 2l7 -2v-158q0 -71 37 -105.5t121 -34.5q102 0 172 50v248q0 2 8 2z" />
<glyph unicode="&#x448;" horiz-adv-x="814" d="M96 0v524q1 2 7 2l7 -2v-510h289v510q1 2 7 2l6 -2v-510h292v510q1 2 8 2l6 -2v-524h-622z" />
<glyph unicode="&#x449;" horiz-adv-x="828" d="M781 14v-140q-7 -3 -14 0v126h-671v524q1 2 7 2l7 -2v-510h289v510q1 2 7 2l6 -2v-510h292v510q1 2 8 2l6 -2v-510h63z" />
<glyph unicode="&#x44a;" horiz-adv-x="561" d="M167 14h195q64 0 95.5 33.5t31.5 95.5t-31.5 96.5t-95.5 34.5h-195v-260zM167 288h195q69 0 105 -39t36 -106q0 -66 -36 -104.5t-105 -38.5h-209v512h-119q-2 3 -2 6.5t1 5.5l1 2h124q4 0 6 -1t2 -3l1 -1v-233z" />
<glyph unicode="&#x44b;" horiz-adv-x="702" d="M592 524q3 3 6.5 3t5.5 -1l2 -2v-522q-3 -2 -6.5 -2t-5.5 1l-2 1v522zM110 288h195q69 0 105 -39t36 -106q0 -66 -36 -104.5t-105 -38.5h-209v524q3 2 6.5 2t5.5 -1l2 -1v-236zM110 14h195q64 0 95.5 33.5t31.5 95.5t-31.5 96.5t-95.5 34.5h-195v-260z" />
<glyph unicode="&#x44c;" horiz-adv-x="503" d="M110 288h195q69 0 105 -39t36 -106q0 -66 -36 -104.5t-105 -38.5h-209v524q3 2 6.5 2t5.5 -1l2 -1v-236zM110 14h195q64 0 95.5 33.5t31.5 95.5t-31.5 96.5t-95.5 34.5h-195v-260z" />
<glyph unicode="&#x44d;" horiz-adv-x="450" d="M62 514q42 22 113 22q98 0 151.5 -68.5t53.5 -204.5q0 -138 -53.5 -205.5t-151.5 -67.5q-34 0 -65 7t-46 15l-14 7q2 8 8 12q46 -27 115 -27q190 0 193 255h-232q-2 5 -2 7t2 7h232q-1 120 -49 184.5t-143 64.5q-60 0 -106 -20q-6 4 -6 12z" />
<glyph unicode="&#x44e;" horiz-adv-x="768" d="M292 266q1 142 52 206t151 64q99 0 150.5 -64.5t51.5 -208.5t-51 -208.5t-151 -64.5q-98 0 -149.5 62t-53.5 201h-182v-251q-3 -2 -6.5 -2t-5.5 1l-2 1v522h14v-258h182zM306 263q0 -139 48.5 -198.5t140.5 -59.5t140 59t48 199t-48 199t-140 59t-140.5 -59.5 t-48.5 -198.5z" />
<glyph unicode="&#x44f;" horiz-adv-x="517" d="M233 526h188v-524q-3 -2 -6.5 -2t-5.5 1l-2 1v230h-174q-12 0 -34 2l-126 -232q-4 -3 -8.5 -3t-6.5 1l-2 2l129 234q-109 21 -109 141q0 149 157 149zM407 246v266h-174q-143 0 -143 -135q0 -131 143 -131h174z" />
<glyph unicode="&#x451;" horiz-adv-x="508" d="M434 259h-348q4 -133 47 -193.5t136 -60.5q39 0 74 11t51 22l15 11q9 -2 9 -11q-6 -5 -17 -13t-50.5 -21.5t-84.5 -13.5q-195 0 -195 276q0 136 54 203t146 67q84 0 129 -51t45 -128q0 -27 -2.5 -51.5t-5.5 -35.5zM430 360q0 68 -40 114.5t-119 46.5q-86 0 -134.5 -61.5 t-50.5 -185.5h337l6 53q1 16 1 33zM213 693v-22q-6 -4 -16 -4l-15 4v22q6 4 15 4zM360 693v-22q-5 -4 -15 -4l-16 4v22q7 4 16 4z" />
<glyph unicode="&#x1e80;" horiz-adv-x="938" d="M684 -4l-192 618l-18 71h-1q-3 -21 -19 -71l-193 -618q-1 -2 -3 0l-224 722q2 2 8 2l8 -2l188 -609l22 -77h1q5 25 21 77l188 609q1 2 3 2l3 -2l188 -609l21 -79h1q5 29 19 79l176 609q0 2 9 2l7 -2l-210 -722q-1 -2 -3 0zM374 919q5 8 11 10l124 -152q-3 -7 -10 -8z" />
<glyph unicode="&#x1e81;" horiz-adv-x="788" d="M733 524q3 2 7 2l8 -2l-179 -527h-1l-137 387l-36 111l-37 -111l-137 -387h-1l-179 527q2 2 8 2l7 -2l143 -421l22 -72l23 72l148 421h5l148 -421l23 -72l22 72zM291 764q5 8 11 10l124 -152q-3 -7 -10 -8z" />
<glyph unicode="&#x1e82;" horiz-adv-x="938" d="M684 -4l-192 618l-18 71h-1q-3 -21 -19 -71l-193 -618q-1 -2 -3 0l-224 722q2 2 8 2l8 -2l188 -609l22 -77h1q5 25 21 77l188 609q1 2 3 2l3 -2l188 -609l21 -79h1q5 29 19 79l176 609q0 2 9 2l7 -2l-210 -722q-1 -2 -3 0zM420 774l124 152q6 -1 11 -10l-125 -150 q-7 1 -10 8z" />
<glyph unicode="&#x1e83;" horiz-adv-x="788" d="M333 622l124 152q6 -1 11 -10l-125 -150q-7 1 -10 8zM733 524q3 2 7 2l8 -2l-179 -527h-1l-137 387l-36 111l-37 -111l-137 -387h-1l-179 527q2 2 8 2l7 -2l143 -421l22 -72l23 72l148 421h5l148 -421l23 -72l22 72z" />
<glyph unicode="&#x1e84;" horiz-adv-x="938" d="M684 -4l-192 618l-18 71h-1q-3 -21 -19 -71l-193 -618q-1 -2 -3 0l-224 722q2 2 8 2l8 -2l188 -609l22 -77h1q5 25 21 77l188 609q1 2 3 2l3 -2l188 -609l21 -79h1q5 29 19 79l176 609q0 2 9 2l7 -2l-210 -722q-1 -2 -3 0zM420 829v-20q-5 -4 -14 -4l-14 4v20q6 4 14 4z M554 829v-20q-5 -4 -14 -4l-14 4v20q6 4 14 4z" />
<glyph unicode="&#x1e85;" horiz-adv-x="788" d="M733 524q3 2 7 2l8 -2l-179 -527h-1l-137 387l-36 111l-37 -111l-137 -387h-1l-179 527q2 2 8 2l7 -2l143 -421l22 -72l23 72l148 421h5l148 -421l23 -72l22 72zM341 694v-20q-5 -4 -14 -4l-14 4v20q6 4 14 4zM475 694v-20q-5 -4 -14 -4l-14 4v20q6 4 14 4z" />
<glyph unicode="&#x1ef2;" horiz-adv-x="609" d="M565 718q2 2 9 2l9 -2l-272 -412v-304q-3 -2 -8 -2l-7 2v303l-264 413q3 2 10 2l8 -2l253 -396zM209 911q5 8 11 10l124 -152q-3 -7 -10 -8z" />
<glyph unicode="&#x1ef3;" horiz-adv-x="517" d="M479 524l-251 -665q-23 -61 -44 -85t-57 -24l-43 5q-3 7 1 14q14 -5 41 -5q32 0 49.5 22t40.5 83l49 130h-1l-228 525q2 2 8 2l8 -2l220 -507h1l190 507q2 2 8 2zM152 759q5 8 11 10l124 -152q-3 -7 -10 -8z" />
<glyph unicode="&#x2044;" horiz-adv-x="120" d="M-145 -7l388 707q9 3 17 0l-388 -707q-8 -4 -17 0z" />
<glyph unicode="&#x2113;" horiz-adv-x="448" d="M249 5q32 0 67 14.5t54 28.5l18 15q2 1 5.5 -2t3.5 -6q-6 -7 -18.5 -18t-51.5 -29t-81 -18q-56 0 -85.5 36.5t-29.5 105.5v110q-22 -12 -82 -42q-7 6 -5 13q72 35 87 44v289q0 105 34 154.5t105 49.5q121 0 121 -149q0 -95 -66.5 -187.5t-178.5 -163.5v-118 q0 -127 103 -127zM376 600q0 135 -104 135q-65 0 -95.5 -45t-30.5 -141v-283q99 67 164.5 153.5t65.5 180.5z" />
<glyph unicode="&#x2117;" horiz-adv-x="811" d="M74 340q0 137 97.5 234t234.5 97t234 -97t97 -234t-97 -234.5t-234 -97.5t-234.5 97.5t-97.5 234.5zM722 340q0 131 -92.5 223.5t-223.5 92.5t-224.5 -92.5t-93.5 -223.5t93.5 -224.5t224.5 -93.5t223.5 93.5t92.5 224.5zM309 523h128q60 0 93.5 -34t33.5 -94 q0 -61 -33.5 -95t-93.5 -34h-113v-126q-8 -5 -15 0v383zM324 509v-229h111q54 0 84 30.5t30 84.5q0 53 -30 83.5t-84 30.5h-111z" />
<glyph unicode="&#x212e;" horiz-adv-x="834" d="M612 95h67q-99 -105 -254 -105q-145 0 -248.5 103t-103.5 249t103.5 249t248.5 103t248.5 -103t103.5 -249v-24h-544v-218q90 -67 192 -67q99 0 187 62zM617 583q-82 68 -192 68q-108 0 -192 -67v-222h384v221z" />
<glyph unicode="&#x2190;" horiz-adv-x="620" d="M253 546q7 -1 10 -10l-178 -179h472q1 -3 1 -7q0 -3 -1 -8h-471l177 -177q-2 -8 -10 -11l-196 196z" />
<glyph unicode="&#x2191;" horiz-adv-x="492" d="M442 404q-1 -7 -10 -10l-179 178v-472q-3 -1 -7 -1q-3 0 -8 1v471l-177 -177q-8 2 -11 10l196 196z" />
<glyph unicode="&#x2192;" horiz-adv-x="620" d="M535 357l-178 179q3 9 10 10l196 -196l-196 -196q-8 3 -10 11l177 177h-471q-1 4 -1 8l1 7h472z" />
<glyph unicode="&#x2193;" horiz-adv-x="490" d="M251 127l179 178q9 -3 10 -10l-196 -196l-196 196q3 8 11 10l177 -177v471q4 1 8 1l7 -1v-472z" />
<glyph unicode="&#x2202;" horiz-adv-x="552" d="M149 738q0 9 4 14q144 -23 235 -147t91 -301q0 -161 -50.5 -237.5t-157.5 -76.5q-98 0 -149 66.5t-51 195.5q0 262 191 262q65 0 116 -33t79 -84l-1 4q-26 138 -103.5 225.5t-203.5 111.5zM86 252q0 -247 185 -247q102 0 147.5 72t45.5 227l-1 54q-27 68 -83 104.5 t-119 36.5q-86 0 -130.5 -62.5t-44.5 -184.5z" />
<glyph unicode="&#x220f;" horiz-adv-x="705" d="M591 693v-898q-7 -3 -15 0v883h-447v-883q-7 -3 -15 0v898h477z" />
<glyph unicode="&#x2211;" horiz-adv-x="560" d="M42 -194l227 455l-210 425v8h447q3 -8 0 -15h-426l206 -418l-225 -453h451q2 0 2 -6l-2 -9h-470v13z" />
<glyph unicode="&#x2212;" horiz-adv-x="458" d="M365 319h-272q-3 7 0 15h272q3 -8 0 -15z" />
<glyph unicode="&#x2215;" horiz-adv-x="455" d="M23 -7l388 707q1 2 9 2l8 -2l-389 -707q-2 -2 -8 -2z" />
<glyph unicode="&#x2219;" horiz-adv-x="206" d="M103 321q-15 0 -15 15t15 15t15 -15t-15 -15z" />
<glyph unicode="&#x221a;" horiz-adv-x="614" d="M323 -15l-161 402l-115 -49q-7 4 -7 13l131 55l158 -399l238 723q10 2 14 -4l-245 -741h-13z" />
<glyph unicode="&#x221e;" horiz-adv-x="834" d="M595 164q-39 0 -71.5 14t-51.5 34.5t-32 41t-18 34.5l-5 14q-2 -6 -5.5 -15t-17.5 -33t-32 -42t-51 -33t-72 -15q-81 0 -122.5 47.5t-41.5 113.5t41.5 113.5t122.5 47.5q39 0 71.5 -14.5t51.5 -35t32 -40.5t18 -34l5 -15q2 6 6 15t20 33t34.5 42.5t50 33.5t67.5 15 q81 0 122.5 -47.5t41.5 -113.5t-41.5 -113.5t-122.5 -47.5zM238 179q38 0 70 15t50 36.5t30 43t16 36.5l5 15q-1 6 -4.5 16t-17 35t-30.5 44t-49 35t-70 16q-76 0 -111.5 -43t-35.5 -103t35.5 -103t111.5 -43zM596 471q-36 0 -67 -15t-49.5 -36.5t-31.5 -43t-18 -36.5 l-5 -15q2 -6 5.5 -16t17.5 -35t31.5 -44t49 -35t67.5 -16q76 0 111.5 43t35.5 103t-35.5 103t-111.5 43z" />
<glyph unicode="&#x222b;" horiz-adv-x="506" d="M246 -61v651q0 131 113 131q66 0 121 -30q0 -8 -8 -12q-55 26 -106 27q-50 1 -77.5 -26.5t-27.5 -87.5v-653q0 -130 -120 -130q-60 0 -115 33q0 10 8 12q53 -28 108 -29q46 -1 75 23.5t29 90.5z" />
<glyph unicode="&#x2248;" horiz-adv-x="534" d="M186 231q-23 0 -44 -10.5t-30 -20.5l-10 -11q-10 0 -11 9q4 5 11.5 13t32.5 21.5t52 13.5q33 0 79.5 -30.5t77.5 -30.5q25 0 46.5 10t30.5 20l9 10q9 0 12 -7q-4 -5 -11.5 -13t-33 -21.5t-54.5 -13.5q-33 0 -79.5 30.5t-77.5 30.5zM186 376q-23 0 -44 -10.5t-30 -21.5 l-10 -10q-10 0 -11 9q4 5 11.5 13t32.5 21.5t52 13.5q33 0 79.5 -30.5t77.5 -30.5q25 0 46.5 10t30.5 20l9 10q9 0 12 -7q-4 -5 -11.5 -13t-33 -21.5t-54.5 -13.5q-33 0 -79.5 30.5t-77.5 30.5z" />
<glyph unicode="&#x2260;" horiz-adv-x="542" d="M230 215h201q3 -7 0 -15h-210l-55 -100q-8 -3 -16 0l55 100h-94q-3 8 0 15h103l81 147h-184q-3 8 0 15h192l53 96q7 3 16 0l-53 -96h112q3 -7 0 -15h-120z" />
<glyph unicode="&#x2264;" horiz-adv-x="469" d="M375 152q5 -8 0 -15h-282q-3 7 0 15h282zM377 239l-2 -8l-282 127q-2 5 -2 11l2 11l275 122q2 -2 2 -8l-2 -9l-263 -116l270 -121q2 -4 2 -9z" />
<glyph unicode="&#x2265;" horiz-adv-x="471" d="M377 137h-282q-5 7 0 15h282q3 -8 0 -15zM377 358l-282 -127q-2 2 -2 8l2 9l270 121l-263 116q-2 3 -2 9l2 8l275 -122q2 -6 2 -11z" />
<glyph unicode="&#x25ca;" horiz-adv-x="541" d="M268 7l-208 345l208 344h7l211 -344l-211 -345h-7zM469 352l-197 322l-194 -322l194 -323z" />
<glyph unicode="&#x25fc;" horiz-adv-x="525" d="M0 525h525v-525h-525v525z" />
<glyph unicode="&#xf6c3;" horiz-adv-x="0" d="M70 -70l-8 6q24 30 24 62l-10 2v20q3 2 12 2l12 -2v-17q0 -20 -7.5 -38t-14.5 -27z" />
<glyph unicode="&#xfb01;" horiz-adv-x="544" d="M109 590q0 82 38.5 121t135.5 39q36 0 75 -6.5t60 -13.5l21 -6q2 -9 -5 -13q-71 25 -149 25q-94 0 -128 -34.5t-34 -110.5v-65h321v-524q-1 -2 -8 -2l-6 2v510h-307v-510q-1 -2 -7 -2l-7 2v510h-64q-5 6 0 14h64v64z" />
<glyph unicode="&#xfb02;" horiz-adv-x="546" d="M109 586q0 79 35 121.5t124 42.5q42 0 86 -8.5t67 -17.5l23 -8v-714q-7 -4 -14 0v704q-82 30 -157 30q-86 0 -118 -36t-32 -109v-65h144q3 -7 0 -14h-144v-510q-1 -2 -7 -2l-7 2v510h-64q-3 7 0 14h64v60z" />
<glyph horiz-adv-x="322" />
<glyph horiz-adv-x="0" />
<glyph horiz-adv-x="700" d="M430 16h203q3 -2 3 -8q0 -5 -3 -8h-223q-3 3 -3 9.5t3 10.5q26 16 56 45t62.5 73.5t54 108.5t21.5 133q0 165 -64.5 250t-190.5 85t-190.5 -85t-64.5 -250q0 -66 21 -128.5t54 -107.5t62.5 -75t56.5 -49q4 -2 4 -9.5t-4 -10.5h-223q-3 3 -3 8t3 8h206q-6 3 -24.5 17.5 t-48 47.5t-56 73.5t-45.5 101t-19 124.5q0 172 68.5 261t202.5 89t202.5 -89t68.5 -261q0 -63 -17 -121.5t-40 -97.5t-52.5 -72.5t-48 -48.5t-32.5 -24z" />
<glyph horiz-adv-x="0" d="M94 699l8 -6q-24 -30 -24 -62l10 -2v-20q-3 -2 -12 -2l-12 2v17q0 20 7.5 38t14.5 26z" />
<glyph horiz-adv-x="555" d="M444 524q1 2 7 2l8 -2v-498q0 -160 -44 -218t-166 -58q-32 0 -65.5 5t-50.5 11l-17 5q-2 8 5 13q64 -20 128 -20q115 0 155.5 54.5t40.5 207.5v100q-22 -63 -72.5 -99.5t-109.5 -36.5q-192 0 -192 273t199 273q61 0 107 -38t67 -101v127zM444 184v142q0 72 -48.5 133.5 t-124.5 61.5q-185 0 -185 -258t178 -258q74 0 126 55.5t54 123.5z" />
<glyph horiz-adv-x="555" d="M444 524q1 2 7 2l8 -2v-498q0 -160 -44 -218t-166 -58q-32 0 -65.5 5t-50.5 11l-17 5q-2 8 5 13q64 -20 128 -20q115 0 155.5 54.5t40.5 207.5v100q-22 -63 -72.5 -99.5t-109.5 -36.5q-192 0 -192 273t199 273q60 0 106.5 -37t67.5 -96v121zM444 184v142 q0 72 -48.5 133.5t-124.5 61.5q-185 0 -185 -258t178 -258q74 0 126 55.5t54 123.5zM274 656q71 0 115 48q7 -4 9 -10q-5 -6 -14 -14.5t-41.5 -23t-68.5 -14.5t-67 13t-44 26l-13 13q3 8 9 9q47 -47 115 -47z" />
<glyph horiz-adv-x="555" d="M444 524q1 2 7 2l8 -2v-498q0 -160 -44 -218t-166 -58q-32 0 -65.5 5t-50.5 11l-17 5q-2 8 5 13q64 -20 128 -20q115 0 155.5 54.5t40.5 207.5v100q-22 -63 -72.5 -99.5t-109.5 -36.5q-192 0 -192 273t199 273q60 0 106.5 -37t67.5 -96v121zM444 184v142 q0 72 -48.5 133.5t-124.5 61.5q-185 0 -185 -258t178 -258q74 0 126 55.5t54 123.5zM160 615q-6 2 -8 10l120 95h13l117 -95q0 -8 -8 -10l-115 92z" />
<glyph horiz-adv-x="555" d="M444 524q1 2 7 2l8 -2v-498q0 -160 -44 -218t-166 -58q-32 0 -65.5 5t-50.5 11l-17 5q-2 8 5 13q64 -20 128 -20q115 0 155.5 54.5t40.5 207.5v100q-22 -63 -72.5 -99.5t-109.5 -36.5q-192 0 -192 273t199 273q60 0 106.5 -37t67.5 -96v121zM444 184v142 q0 72 -48.5 133.5t-124.5 61.5q-185 0 -185 -258t178 -258q74 0 126 55.5t54 123.5zM292 719l8 -6q-24 -30 -24 -62l10 -2v-20q-3 -2 -12 -2l-12 2v17q0 20 7.5 38t14.5 26z" />
<glyph horiz-adv-x="555" d="M285 702v-24q-4 -2 -14 -2l-15 2v24q6 2 15 2zM444 524q1 2 7 2l8 -2v-498q0 -160 -44 -218t-166 -58q-32 0 -65.5 5t-50.5 11l-17 5q-2 8 5 13q64 -20 128 -20q115 0 155.5 54.5t40.5 207.5v100q-22 -63 -72.5 -99.5t-109.5 -36.5q-192 0 -192 273t199 273 q60 0 106.5 -37t67.5 -96v121zM444 184v142q0 72 -48.5 133.5t-124.5 61.5q-185 0 -185 -258t178 -258q74 0 126 55.5t54 123.5z" />
<glyph horiz-adv-x="0" />
</font>
</defs>
</svg>
